<svg class="animated" id="freepik_stories-breast-cancer-awareness" xmlns="http://www.w3.org/2000/svg" viewBox="0 0 500 500" version="1.1" xmlns:xlink="http://www.w3.org/1999/xlink" xmlns:svgjs="http://svgjs.com/svgjs"><style>svg#freepik_stories-breast-cancer-awareness:not(.animated) .animable {opacity: 0;}svg#freepik_stories-breast-cancer-awareness.animated #freepik--Heart--inject-101 {animation: 1.5s Infinite  linear floating;animation-delay: 0s;}            @keyframes floating {                0% {                    opacity: 1;                    transform: translateY(0px);                }                50% {                    transform: translateY(-10px);                }                100% {                    opacity: 1;                    transform: translateY(0px);                }            }        .animator-hidden { display: none; }</style><g id="freepik--Floor--inject-101" class="animable animator-hidden" style="transform-origin: 250.108px 370.572px;"><path id="freepik--floor--inject-101" d="M97.17,449.32c-84.47-43.49-84.47-114,0-157.5s221.41-43.49,305.88,0,84.46,114,0,157.5S181.63,492.82,97.17,449.32Z" style="fill: rgb(245, 245, 245); transform-origin: 250.108px 370.572px;" class="animable"></path></g><g id="freepik--Heart--inject-101" class="animable" style="transform-origin: 245.02px 183.455px;"><path id="freepik--heart--inject-101" d="M247.64,311.82l-45.58-27.27c-1.87-1.34-4.28-2.89-7-4.68C164,259.52,91.41,211.85,91.41,131c0-41.93,34.72-75.91,77.55-75.91,37.64,0,69,26.25,76.06,61.07,7-34.82,38.43-61.07,76.07-61.07,42.83,0,77.54,34,77.54,75.91,0,81.54-70.14,129.45-100.09,149.9-2,1.37-3.79,2.59-5.32,3.68Z" style="fill: rgb(22, 160, 133); transform-origin: 245.02px 183.455px;" class="animable"></path><g id="freepik--heart--inject-101"><path d="M247.64,311.82l-45.58-27.27c-1.87-1.34-4.28-2.89-7-4.68C164,259.52,91.41,211.85,91.41,131c0-41.93,34.72-75.91,77.55-75.91,37.64,0,69,26.25,76.06,61.07,7-34.82,38.43-61.07,76.07-61.07,42.83,0,77.54,34,77.54,75.91,0,81.54-70.14,129.45-100.09,149.9-2,1.37-3.79,2.59-5.32,3.68Z" style="fill: rgb(255, 255, 255); opacity: 0.8; transform-origin: 245.02px 183.455px;" class="animable"></path></g></g><g id="freepik--Shadows--inject-101" class="animable animator-active animator-hidden" style="transform-origin: 245.245px 397.008px;"><path id="freepik--Shadow--inject-101" d="M198.72,433.92c-26.41-15.25-26.41-40,0-55.22s69.24-15.25,95.65,0,26.41,40,0,55.22S225.13,449.17,198.72,433.92Z" style="fill: rgb(224, 224, 224); transform-origin: 246.545px 406.31px;" class="animable"></path><ellipse id="freepik--shadow--inject-101" cx="145.74" cy="385.24" rx="63.34" ry="36.57" style="fill: rgb(224, 224, 224); transform-origin: 145.74px 385.24px;" class="animable"></ellipse><ellipse id="freepik--shadow--inject-101" cx="344.75" cy="385.24" rx="63.34" ry="36.57" style="fill: rgb(224, 224, 224); transform-origin: 344.75px 385.24px;" class="animable"></ellipse></g><g id="freepik--Plants--inject-101" class="animable animator-hidden" style="transform-origin: 249.058px 279.78px;"><g id="freepik--Leaves--inject-101"><g style="opacity: 0.2; transform-origin: 75.0715px 240.65px;" class="animable"><path d="M86.3,188.42a43.66,43.66,0,0,0-9.21,9.2,41,41,0,0,0-5.26,10.27,113.16,113.16,0,0,0-3.16,11.47,84.1,84.1,0,0,0-2.28,14.95,56.3,56.3,0,0,0,1,13.54,70,70,0,0,0,2.81,10.78,82,82,0,0,0,11.41,21.86,76,76,0,0,0,7.37,8,56.5,56.5,0,0,0,4.85,4c.7.57,1.48,1.08,2.19,1.56s1.35.86,2,1.37l.31.26.21.18s-.08-.05-.05,0l0,0c.58.71.48,1.62-.56,1.53,0,0-.12,0-.07,0l.32.08a3.73,3.73,0,0,1-1.66-.63c-.69-.44-1.32-.81-1.94-1.28a61.27,61.27,0,0,1-5-3.89,63.76,63.76,0,0,1-7.78-8.07,82.11,82.11,0,0,1-12.13-21.89,81.09,81.09,0,0,1-4.62-24.2A64.12,64.12,0,0,1,66.7,222.3c.76-3.8,2.2-8.61,3.38-12.38a42.12,42.12,0,0,1,4.7-10.31,43.4,43.4,0,0,1,8.58-9.31,32.55,32.55,0,0,1,2.83-2c.09-.07.22,0,.11.08S86.29,188.44,86.3,188.42Z" style="fill: rgb(22, 160, 133); transform-origin: 81.9444px 242.871px;" id="el1rk6uacrkl1" class="animable"></path><path d="M93.58,184.19a12,12,0,0,0-3.24,3.63c-.87,1.47-1.34,3.1-2.43,4.48a19.45,19.45,0,0,1-7.1,5.56,26.74,26.74,0,0,1-5.09,1.64.44.44,0,0,1-.5-.21c-.08-.18,0-.31.23-.36a27,27,0,0,0,8.55-3.7,13.79,13.79,0,0,0,3.26-3.16c1.06-1.4,1.73-3,2.7-4.43a10.57,10.57,0,0,1,3.56-3.54c.09,0,.13,0,.06.09S93.56,184.19,93.58,184.19Z" style="fill: rgb(22, 160, 133); transform-origin: 84.4027px 191.808px;" id="elvgv7hs94j7g" class="animable"></path><path d="M93.72,183.93a7.65,7.65,0,0,1-1.34.49c-.48.14-1,.24-1.47.35-1,.23-2,.37-3,.67a22.78,22.78,0,0,0-4.84,1.94,14.67,14.67,0,0,0-4,3.29,17.67,17.67,0,0,0-2.62,4.61c-.39.92-.69,1.92-1,2.86-.16.47-.28,1-.42,1.43a5.48,5.48,0,0,1-.22.72c-.1.22-.19.45-.28.64s-.51.3-.52,0a6,6,0,0,1,.19-1.46c.1-.47.21-.9.35-1.35.28-.87.55-1.76.9-2.6a19.47,19.47,0,0,1,2.49-4.76A14.5,14.5,0,0,1,82,187.2a19.76,19.76,0,0,1,5.08-2c1.07-.3,2.18-.38,3.26-.6.57-.11,1.14-.2,1.71-.34s1.11-.31,1.67-.43c.06,0,0,0,0,.07S93.74,183.91,93.72,183.93Z" style="fill: rgb(22, 160, 133); transform-origin: 83.8783px 192.473px;" id="el5cv6wrda176" class="animable"></path><path d="M71.14,190.86a27,27,0,0,1-1.68,4.35c-.35.75-.72,1.46-1.07,2.21a20.12,20.12,0,0,0-1,2.28,11.26,11.26,0,0,0-.67,5.08,17.79,17.79,0,0,0,1.78,5.05,15.91,15.91,0,0,1,1,2,6.14,6.14,0,0,1,.28,1.32,2.49,2.49,0,0,1-.31,1.76.3.3,0,0,1-.52-.12,12.19,12.19,0,0,1-.1-1.66,4.31,4.31,0,0,0-.27-1c-.22-.6-.57-1.11-.82-1.67A20.39,20.39,0,0,1,66,205.3a11.3,11.3,0,0,1,.47-5.16,20.84,20.84,0,0,1,2.12-4.22,30.9,30.9,0,0,0,2.42-5c0-.08.21-.15.18,0S71.15,190.88,71.14,190.86Z" style="fill: rgb(22, 160, 133); transform-origin: 68.5408px 202.924px;" id="elirm82e3rjbk" class="animable"></path><path d="M71,191.26A17.34,17.34,0,0,1,70.9,193c-.07.59-.23,1.18-.25,1.79A12.4,12.4,0,0,0,71,198.4a28.37,28.37,0,0,1,1.13,7.15,8.46,8.46,0,0,1-.32,1.93,6.12,6.12,0,0,1-.32.94,5.24,5.24,0,0,1-.46.88.27.27,0,0,1-.49-.19,18.43,18.43,0,0,0,.78-3.62,13.69,13.69,0,0,0-.24-3.46,27.94,27.94,0,0,1-1-7,12.67,12.67,0,0,1,.34-1.78c.12-.61.28-1.28.39-1.89,0-.08.19-.18.19-.08S71,191.28,71,191.26Z" style="fill: rgb(22, 160, 133); transform-origin: 71.105px 200.328px;" id="elttitw4kh8r" class="animable"></path><path d="M84.49,199a18.61,18.61,0,0,0-1.85,3.87,14.19,14.19,0,0,1-2.09,3.91,15.48,15.48,0,0,1-3.4,3c-.65.43-1.3.77-2,1.19s-1.61.82-2.36,1.33a13.71,13.71,0,0,0-2.07,1.83,10.93,10.93,0,0,0-.93,1.14,12.05,12.05,0,0,1-1,1.33c-.11.12-.46.12-.39-.12a6.94,6.94,0,0,1,1.44-2.36,11.76,11.76,0,0,1,1.77-1.76A39.88,39.88,0,0,1,76,209.72,15.55,15.55,0,0,0,79.59,207,14.46,14.46,0,0,0,82,203.21c.37-.74.63-1.52,1-2.25a11.48,11.48,0,0,1,1.38-2s.15-.08.1,0S84.48,199,84.49,199Z" style="fill: rgb(22, 160, 133); transform-origin: 76.4405px 207.802px;" id="el8d3clket16b" class="animable"></path><path d="M84,199.43a4.13,4.13,0,0,1-2,1.91c-1.19.69-2.39,1.21-3.57,1.88a24.2,24.2,0,0,0-5.72,4.17,14,14,0,0,0-2.22,3.49c-.09.17-.49.15-.42,0a11.87,11.87,0,0,1,3.79-5.4,32.32,32.32,0,0,1,6.5-3.72c.68-.34,1.36-.59,2-.93a3.38,3.38,0,0,0,1.5-1.32s.12-.08.1,0S84.05,199.44,84,199.43Z" style="fill: rgb(22, 160, 133); transform-origin: 77.0375px 205.215px;" id="elprz548zk0wm" class="animable"></path><path d="M79.64,204.36a27.87,27.87,0,0,1-4.56,3.35,15.79,15.79,0,0,0-4.17,3.82,14.09,14.09,0,0,0-1.45,3c-.08.18-.47.15-.42-.06a10.75,10.75,0,0,1,2.58-4.66,22.32,22.32,0,0,1,5-3.48,17.13,17.13,0,0,0,3-2s.12,0,.08,0S79.63,204.38,79.64,204.36Z" style="fill: rgb(22, 160, 133); transform-origin: 74.3719px 209.489px;" id="eliauk9oxoshn" class="animable"></path><path d="M69.13,200.53a16.55,16.55,0,0,0,.35,5.3,28.84,28.84,0,0,1,.78,5.23,8.11,8.11,0,0,1-.14,1.46,4.94,4.94,0,0,1-.17.64,1.67,1.67,0,0,1-.15.38,1,1,0,0,1-.25.34c-.11.1-.35.18-.36-.06a3.89,3.89,0,0,1,.08-.74c0-.27.09-.45.14-.79a10.9,10.9,0,0,0,.14-1.24,15.69,15.69,0,0,0-.16-2.47c-.25-1.7-.59-3.33-.7-5.06a11.23,11.23,0,0,1,.32-2.94c0-.05.13-.12.12-.05S69.13,200.55,69.13,200.53Z" style="fill: rgb(22, 160, 133); transform-origin: 69.4734px 207.239px;" id="eldfsrv79pc6i" class="animable"></path><path d="M65.94,238.38a6.67,6.67,0,0,1-4.36-1.53,10.45,10.45,0,0,1-3-4c-1.42-3.42-2-7.05-3.45-10.48a8.71,8.71,0,0,0-1.51-2.3,14,14,0,0,0-2.26-1.92c-.18-.13.09-.28.22-.19a14.38,14.38,0,0,1,5.32,7.71c.7,2,1.07,4,1.82,5.91a13.19,13.19,0,0,0,2.6,4.35,6.63,6.63,0,0,0,2,1.44,7.43,7.43,0,0,0,2.45.58c.26,0,.48.45.11.44Z" style="fill: rgb(22, 160, 133); transform-origin: 58.6882px 228.161px;" id="eldphd31o34l" class="animable"></path><path d="M65.79,231.72c-.23-.66-.51-1.35-.78-2s-.47-1.3-.75-1.91a15.44,15.44,0,0,0-1.92-3.38,16.54,16.54,0,0,0-5.84-4.83,30.86,30.86,0,0,0-5.08-1.5c-.14,0,0-.16.1-.15a17.3,17.3,0,0,1,4.56,1,13,13,0,0,1,3.6,2,18.23,18.23,0,0,1,4.78,6.14,16.72,16.72,0,0,1,.77,2.16c.25.75.4,1.62.59,2.41,0,0,0,0,0,0S65.8,231.73,65.79,231.72Z" style="fill: rgb(22, 160, 133); transform-origin: 58.5905px 224.835px;" id="eleq22v8v3t4e" class="animable"></path><path d="M65.37,236.77a4.14,4.14,0,0,0-.25-1.61c-.18-.54-.36-1.2-.57-1.79-.42-1.14-.86-2.33-1.4-3.44a30.91,30.91,0,0,0-3.81-5.87c-.43-.53-.94-1-1.39-1.48a15.94,15.94,0,0,0-1.51-1.45s0,0,0,0a30.56,30.56,0,0,1,2.67,2.3,25.53,25.53,0,0,1,2.46,2.8A27.61,27.61,0,0,1,65,232.8a19.91,19.91,0,0,1,.59,2.06,4.18,4.18,0,0,1,.11,1.92c0,.17-.35.18-.35,0Z" style="fill: rgb(22, 160, 133); transform-origin: 61.1019px 229.021px;" id="elwae5350u83j" class="animable"></path><path d="M72.39,242.44a18.63,18.63,0,0,1-1,6.76c-.36,1.18-.79,2.25-1.05,3.41a20.28,20.28,0,0,0-.47,3.36,14.63,14.63,0,0,0,0,1.87c0,.66.25,1.35.31,2,0,.22-.24.34-.41.35a.68.68,0,0,1-.37-.12.35.35,0,0,1-.18-.25c0-.08,0,.11,0,.06a.74.74,0,0,1-.09-.18c0-.09,0-.12-.09-.26s-.1-.29-.15-.52a5.49,5.49,0,0,1-.14-.9c0-.55-.1-1.12-.09-1.7a15.68,15.68,0,0,1,.39-3.54,28,28,0,0,1,1.14-3.34c.42-1.12.91-2.15,1.27-3.3a13.93,13.93,0,0,0,.53-3.64c0-.12.28-.24.29-.09S72.41,242.46,72.39,242.44Z" style="fill: rgb(22, 160, 133); transform-origin: 70.5312px 251.265px;" id="el8dqs0daxj8c" class="animable"></path><path d="M74.13,233.93a16.2,16.2,0,0,1-1.81,3.32,15.42,15.42,0,0,0-1.73,3.38,16.89,16.89,0,0,0-.65,7.06c.07.79.25,1.5.26,2.29a8.75,8.75,0,0,1-.09,2.34c-.08.36-.74.14-.77-.17-.08-.72,0-1.5-.07-2.2s-.15-1.31-.21-2a18.52,18.52,0,0,1,0-3.57,12.81,12.81,0,0,1,.79-3.48,17.42,17.42,0,0,1,1.83-3.29c.4-.6.88-1.19,1.3-1.78A15.7,15.7,0,0,0,74,234s.11-.09.09,0S74.13,233.94,74.13,233.93Z" style="fill: rgb(22, 160, 133); transform-origin: 71.5519px 243.218px;" id="eli1g6lbuq15a" class="animable"></path><path d="M74.18,233.91a10.36,10.36,0,0,0,0,1.93c.06.66.21,1.32.32,2a35.67,35.67,0,0,1,.69,4.28,13,13,0,0,1-2.24,8,7.73,7.73,0,0,1-1.62,1.61,7.2,7.2,0,0,0-1.53,1.64c-.13.22-.62.2-.55-.08a3.22,3.22,0,0,1,1.08-1.53,14,14,0,0,0,1.53-1.37,12.78,12.78,0,0,0,2.09-3.55,11.35,11.35,0,0,0,.58-4.19,38.18,38.18,0,0,0-.49-4.37c-.11-.73-.24-1.48-.28-2.21A5.55,5.55,0,0,1,74,234c0-.06.19-.15.18,0S74.18,233.92,74.18,233.91Z" style="fill: rgb(22, 160, 133); transform-origin: 72.2255px 243.715px;" id="elml9gl9nsis" class="animable"></path><path d="M64.54,265.52c.24.34.49.73.7,1.09s.34.7.52,1.06c.34.68.51,1.4.87,2.08a15.64,15.64,0,0,0,2.21,3.52,16.43,16.43,0,0,0,6.38,4c.68.26,1.39.33,2.11.53a5.38,5.38,0,0,1,2.1.9c.3.26-.11.47-.4.39s-.69-.24-1-.36-.64-.18-1-.27c-.67-.17-1.36-.28-2-.51a16.68,16.68,0,0,1-3.68-1.66,13.19,13.19,0,0,1-3.06-2.56,16.32,16.32,0,0,1-2.13-3.48c-.37-.78-.62-1.61-1-2.39-.16-.37-.31-.75-.46-1.12s-.29-.75-.43-1.12c0-.12.16-.23.23-.14S64.55,265.53,64.54,265.52Z" style="fill: rgb(22, 160, 133); transform-origin: 71.9024px 272.277px;" id="elogqjb41nld" class="animable"></path><path d="M62.84,263.73a8.29,8.29,0,0,0,1.28,1.3,6.88,6.88,0,0,0,1.42.84A31.52,31.52,0,0,0,68.73,267a12.15,12.15,0,0,1,3.17,1.45,11.06,11.06,0,0,1,2.39,2.1,11.36,11.36,0,0,1,2,3.19c.16.41-.44.49-.68.21a11.5,11.5,0,0,1-.71-1c-.2-.31-.25-.42-.49-.77a10.12,10.12,0,0,0-.87-1.18,11.42,11.42,0,0,0-2.13-1.88,16.88,16.88,0,0,0-3-1.55c-1-.41-2.15-.82-3.17-1.3a7.06,7.06,0,0,1-1.46-.92,4,4,0,0,1-.61-.63,1.72,1.72,0,0,1-.24-.39c-.09-.15-.2-.31-.27-.45a.12.12,0,0,1,.18-.14C62.9,263.81,62.86,263.74,62.84,263.73Z" style="fill: rgb(22, 160, 133); transform-origin: 69.4849px 268.917px;" id="elfue21yg9cp9" class="animable"></path><path d="M68.66,270.39a39.22,39.22,0,0,1,4.41,2.3,21.66,21.66,0,0,1,2.05,1.41,16,16,0,0,1,1.54,1.38,6.38,6.38,0,0,1,.66.74,1.28,1.28,0,0,1,.36.7c0,.3-.43.26-.58.15A7.12,7.12,0,0,1,76,275.92a11,11,0,0,0-.88-.91,18.34,18.34,0,0,0-2-1.63c-1.49-1-3-1.89-4.5-2.95,0,0,0-.05,0,0Z" style="fill: rgb(22, 160, 133); transform-origin: 73.15px 273.771px;" id="eljjlkjf1q1d" class="animable"></path><path d="M79.39,256.69a2.51,2.51,0,0,1,.41.82,5.69,5.69,0,0,1,.09,1,9,9,0,0,1-.21,1.85,32.8,32.8,0,0,1-1.17,3.85,21.79,21.79,0,0,0-1.82,7.76,11.07,11.07,0,0,0,1.19,4.2c.17.41-.48.49-.64.18a10.39,10.39,0,0,1-1.07-7.56c.62-2.69,1.91-5.06,2.62-7.7a12.41,12.41,0,0,0,.42-2.17,6.68,6.68,0,0,0,0-1,7.79,7.79,0,0,1,0-1.08c0-.08.11-.24.21-.11S79.36,256.63,79.39,256.69Z" style="fill: rgb(22, 160, 133); transform-origin: 77.8864px 266.609px;" id="el9h8lxyzfpod" class="animable"></path><path d="M80.4,265.61a7,7,0,0,1,.15,1.2,9.56,9.56,0,0,1-.11,1.2,21,21,0,0,1-.53,2.35,35,35,0,0,0-1,4.84,13.26,13.26,0,0,0-.07,1.4,7.54,7.54,0,0,1,0,1.41c-.11.42-.55.36-.71,0a3.08,3.08,0,0,1-.13-1.22,9.36,9.36,0,0,1,.09-1.17,19.89,19.89,0,0,1,.52-2.41c.46-1.64,1-3.24,1.4-4.9.09-.44.12-.89.17-1.33s.07-.88.09-1.33c0,0,.1-.12.11-.06S80.41,265.62,80.4,265.61Z" style="fill: rgb(22, 160, 133); transform-origin: 79.2682px 271.938px;" id="el6cvdq62q4wv" class="animable"></path><path d="M81.45,274.72c-.25,1.12-.5,2.26-.74,3.39-.12.56-.22,1.13-.36,1.68-.06.28-.19.69-.53.35a1.55,1.55,0,0,1-.14-1.49,9.75,9.75,0,0,0,.26-1.15c.17-.76.36-1.5.52-2.24.35-1.69.88-3.26,1.07-5a25.46,25.46,0,0,0-.7-9.07,23.7,23.7,0,0,0-1.65-4.39c0-.1.14-.24.2-.14s0,0,0,0a23.6,23.6,0,0,1,3,8.39,20,20,0,0,1,.11,4.7A41,41,0,0,1,81.45,274.72Z" style="fill: rgb(22, 160, 133); transform-origin: 80.8795px 268.447px;" id="el0gon9um7vyc5" class="animable"></path></g></g><g id="freepik--leaves--inject-101"><g style="opacity: 0.2; transform-origin: 423.029px 240.63px;" class="animable"><path d="M411.8,188.42a43.47,43.47,0,0,1,9.22,9.2,41.37,41.37,0,0,1,5.26,10.27,113.16,113.16,0,0,1,3.16,11.47,86,86,0,0,1,2.28,14.95,56.29,56.29,0,0,1-1,13.54,68.88,68.88,0,0,1-2.81,10.78,82,82,0,0,1-11.4,21.86,76.06,76.06,0,0,1-7.38,8,56.36,56.36,0,0,1-4.84,4c-.71.57-1.48,1.08-2.19,1.56s-1.36.86-2,1.37l-.31.26-.2.18.05,0-.05,0c-.57.71-.48,1.62.57,1.53,0,0,.11,0,.06,0l-.32.08a3.77,3.77,0,0,0,1.67-.63c.69-.44,1.31-.81,1.93-1.28a59.77,59.77,0,0,0,5-3.89,63.68,63.68,0,0,0,7.77-8.07,82.11,82.11,0,0,0,12.13-21.89,80.79,80.79,0,0,0,4.63-24.2,64.64,64.64,0,0,0-1.64-15.16c-.77-3.8-2.2-8.61-3.38-12.38a42.12,42.12,0,0,0-4.7-10.31,43.91,43.91,0,0,0-8.58-9.31,32.69,32.69,0,0,0-2.84-2c-.09-.07-.21,0-.11.08S411.82,188.44,411.8,188.42Z" style="fill: rgb(22, 160, 133); transform-origin: 416.138px 242.896px;" id="el5bu9ttkzgs" class="animable"></path><path d="M404.53,184.19a11.83,11.83,0,0,1,3.23,3.63c.88,1.47,1.35,3.1,2.43,4.48a19.48,19.48,0,0,0,7.11,5.56,26.52,26.52,0,0,0,5.09,1.64.42.42,0,0,0,.49-.21c.08-.18,0-.31-.22-.36a27.19,27.19,0,0,1-8.56-3.7,13.94,13.94,0,0,1-3.25-3.16c-1.07-1.4-1.73-3-2.7-4.43a10.51,10.51,0,0,0-3.57-3.54c-.09,0-.12,0-.05.09S404.54,184.19,404.53,184.19Z" style="fill: rgb(22, 160, 133); transform-origin: 413.701px 191.808px;" id="els5ojppb926" class="animable"></path><path d="M404.39,183.93a7.65,7.65,0,0,0,1.34.49c.47.14,1,.24,1.46.35,1,.23,2,.37,3,.67a22.69,22.69,0,0,1,4.83,1.94,14.57,14.57,0,0,1,4,3.29,18,18,0,0,1,2.62,4.61c.39.92.69,1.92,1,2.86.16.47.29,1,.43,1.43a5.46,5.46,0,0,0,.21.72c.1.22.19.45.29.64s.5.3.51,0a6,6,0,0,0-.19-1.46,12.15,12.15,0,0,0-.35-1.35c-.27-.87-.54-1.76-.89-2.6a19.47,19.47,0,0,0-2.49-4.76,14.78,14.78,0,0,0-4.08-3.6,19.68,19.68,0,0,0-5.09-2c-1.07-.3-2.17-.38-3.26-.6-.57-.11-1.14-.2-1.7-.34s-1.11-.31-1.68-.43c-.05,0,0,0,0,.07S404.37,183.91,404.39,183.93Z" style="fill: rgb(22, 160, 133); transform-origin: 414.204px 192.453px;" id="ellbkrhflrvx" class="animable"></path><path d="M427,190.86a26.93,26.93,0,0,0,1.67,4.35c.36.75.72,1.46,1.07,2.21a20.18,20.18,0,0,1,1,2.28,11.12,11.12,0,0,1,.66,5.08,17.77,17.77,0,0,1-1.77,5.05,14.68,14.68,0,0,0-1,2,6.78,6.78,0,0,0-.29,1.32,2.5,2.5,0,0,0,.32,1.76.3.3,0,0,0,.52-.12,16.55,16.55,0,0,0,.1-1.66,4.31,4.31,0,0,1,.27-1c.22-.6.56-1.11.81-1.67a20.81,20.81,0,0,0,1.82-5.17,11.44,11.44,0,0,0-.48-5.16,20.8,20.8,0,0,0-2.11-4.22,29.33,29.33,0,0,1-2.42-5c0-.08-.21-.15-.18,0S427,190.88,427,190.86Z" style="fill: rgb(22, 160, 133); transform-origin: 429.636px 202.919px;" id="elu3adkxdh7nb" class="animable"></path><path d="M427.08,191.26c0,.59.06,1.17.13,1.76s.22,1.18.25,1.79a12.4,12.4,0,0,1-.33,3.59,27.94,27.94,0,0,0-1.14,7.15,9,9,0,0,0,.32,1.93,7.43,7.43,0,0,0,.32.94,6.1,6.1,0,0,0,.46.88c.17.25.57.07.5-.19a18.46,18.46,0,0,1-.79-3.62,13.68,13.68,0,0,1,.25-3.46,28.41,28.41,0,0,0,1-7,12.71,12.71,0,0,0-.35-1.78c-.11-.61-.28-1.28-.39-1.89,0-.08-.19-.18-.19-.08S427.07,191.28,427.08,191.26Z" style="fill: rgb(22, 160, 133); transform-origin: 427.02px 200.329px;" id="el1q431y28rzvj" class="animable"></path><path d="M413.61,199a18.65,18.65,0,0,1,1.86,3.87,14.19,14.19,0,0,0,2.09,3.91,15,15,0,0,0,3.4,3c.65.43,1.3.77,2,1.19s1.61.82,2.35,1.33a13.71,13.71,0,0,1,2.07,1.83,10.93,10.93,0,0,1,.93,1.14,13.47,13.47,0,0,0,1,1.33c.12.12.47.12.39-.12a7.08,7.08,0,0,0-1.43-2.36,11.81,11.81,0,0,0-1.78-1.76,38.85,38.85,0,0,0-4.37-2.62,15.61,15.61,0,0,1-3.63-2.76,15,15,0,0,1-2.41-3.75c-.37-.74-.62-1.52-1-2.25a10.91,10.91,0,0,0-1.37-2s-.16-.08-.11,0S413.62,199,413.61,199Z" style="fill: rgb(22, 160, 133); transform-origin: 421.651px 207.812px;" id="el26ejdfa0de8" class="animable"></path><path d="M414.07,199.43a4.13,4.13,0,0,0,2,1.91c1.19.69,2.38,1.21,3.56,1.88a24.46,24.46,0,0,1,5.73,4.17,14,14,0,0,1,2.22,3.49c.08.17.48.15.41,0a11.79,11.79,0,0,0-3.79-5.4,32.24,32.24,0,0,0-6.49-3.72c-.68-.34-1.37-.59-2-.93a3.43,3.43,0,0,1-1.5-1.32s-.12-.08-.09,0S414.06,199.44,414.07,199.43Z" style="fill: rgb(22, 160, 133); transform-origin: 421.034px 205.215px;" id="elnre6vz4xg3b" class="animable"></path><path d="M418.47,204.36a28.23,28.23,0,0,0,4.55,3.35,15.83,15.83,0,0,1,4.18,3.82,14.58,14.58,0,0,1,1.45,3c.08.18.47.15.41-.06a10.65,10.65,0,0,0-2.58-4.66,22.26,22.26,0,0,0-5-3.48,16.76,16.76,0,0,1-3-2s-.13,0-.08,0S418.47,204.38,418.47,204.36Z" style="fill: rgb(22, 160, 133); transform-origin: 423.727px 209.489px;" id="elrq4996acafd" class="animable"></path><path d="M429,200.53a16.27,16.27,0,0,1-.35,5.3,28.84,28.84,0,0,0-.78,5.23,8.13,8.13,0,0,0,.15,1.46,5,5,0,0,0,.16.64,2.31,2.31,0,0,0,.15.38,1.23,1.23,0,0,0,.26.34c.11.1.34.18.35-.06a3.85,3.85,0,0,0-.07-.74c0-.27-.1-.45-.14-.79a10.8,10.8,0,0,1-.15-1.24,18.52,18.52,0,0,1,.16-2.47c.25-1.7.6-3.33.71-5.06a12.15,12.15,0,0,0-.32-2.94c0-.05-.14-.12-.13-.05S429,200.55,429,200.53Z" style="fill: rgb(22, 160, 133); transform-origin: 428.661px 207.239px;" id="elqqs0vwiho9q" class="animable"></path><path d="M432.16,238.38a6.68,6.68,0,0,0,4.37-1.53,10.53,10.53,0,0,0,3-4c1.42-3.42,2-7.05,3.46-10.48a8.67,8.67,0,0,1,1.5-2.3,14.05,14.05,0,0,1,2.27-1.92c.17-.13-.09-.28-.22-.19-2.81,2-4.24,4.55-5.33,7.71-.69,2-1.07,4-1.81,5.91a13.19,13.19,0,0,1-2.6,4.35,6.56,6.56,0,0,1-2,1.44,7.38,7.38,0,0,1-2.45.58c-.25,0-.47.45-.11.44Z" style="fill: rgb(22, 160, 133); transform-origin: 439.433px 228.161px;" id="eljsrrgz25s3" class="animable"></path><path d="M432.31,231.72c.24-.66.52-1.35.79-2s.47-1.3.75-1.91a15,15,0,0,1,1.91-3.38,16.63,16.63,0,0,1,5.84-4.83,30.86,30.86,0,0,1,5.08-1.5c.14,0,0-.16-.1-.15a17.23,17.23,0,0,0-4.55,1,13,13,0,0,0-3.61,2,18.08,18.08,0,0,0-4.77,6.14,16.72,16.72,0,0,0-.77,2.16c-.26.75-.4,1.62-.6,2.41,0,0,0,0,0,0S432.31,231.73,432.31,231.72Z" style="fill: rgb(22, 160, 133); transform-origin: 439.51px 224.835px;" id="el4v3xz467tut" class="animable"></path><path d="M432.73,236.77a4.33,4.33,0,0,1,.25-1.61c.19-.54.37-1.2.58-1.79a34.93,34.93,0,0,1,1.4-3.44,30.86,30.86,0,0,1,3.8-5.87c.43-.53.94-1,1.4-1.48a14.82,14.82,0,0,1,1.51-1.45s0,0-.05,0a32,32,0,0,0-2.66,2.3,23.58,23.58,0,0,0-2.46,2.8,27.64,27.64,0,0,0-3.42,6.61,17.64,17.64,0,0,0-.58,2.06,4.32,4.32,0,0,0-.12,1.92c0,.17.36.18.35,0Z" style="fill: rgb(22, 160, 133); transform-origin: 436.997px 229.041px;" id="el6xw9sz8hw3j" class="animable"></path><path d="M425.72,242.44a18.41,18.41,0,0,0,1,6.76c.35,1.18.79,2.25,1,3.41a19.27,19.27,0,0,1,.47,3.36,14.62,14.62,0,0,1,0,1.87c0,.66-.26,1.35-.31,2,0,.22.24.34.4.35a.68.68,0,0,0,.37-.12.37.37,0,0,0,.19-.25c0-.08-.06.11,0,.06a.78.78,0,0,0,.08-.18c0-.09.06-.12.1-.26a4.6,4.6,0,0,0,.14-.52,6.74,6.74,0,0,0,.15-.9c0-.55.09-1.12.08-1.7a15.67,15.67,0,0,0-.38-3.54,29.86,29.86,0,0,0-1.14-3.34c-.43-1.12-.92-2.15-1.27-3.3a13.93,13.93,0,0,1-.54-3.64c0-.12-.27-.24-.28-.09S425.7,242.46,425.72,242.44Z" style="fill: rgb(22, 160, 133); transform-origin: 427.548px 251.265px;" id="el8vl6zj5ovdp" class="animable"></path><path d="M424,233.93a15.77,15.77,0,0,0,1.82,3.32,16.34,16.34,0,0,1,1.73,3.38,16.89,16.89,0,0,1,.65,7.06c-.08.79-.25,1.5-.27,2.29a9.18,9.18,0,0,0,.09,2.34c.09.36.74.14.77-.17.08-.72,0-1.5.08-2.2s.15-1.31.21-2a18.52,18.52,0,0,0,0-3.57,12.8,12.8,0,0,0-.78-3.48,18,18,0,0,0-1.83-3.29c-.4-.6-.89-1.19-1.3-1.78a14.49,14.49,0,0,1-1.11-1.9s-.12-.09-.1,0S424,233.94,424,233.93Z" style="fill: rgb(22, 160, 133); transform-origin: 426.562px 243.198px;" id="elqadvp6tz54f" class="animable"></path><path d="M423.93,233.91a10.37,10.37,0,0,1,0,1.93c-.06.66-.21,1.32-.32,2a35.65,35.65,0,0,0-.68,4.28,13,13,0,0,0,2.24,8,7.92,7.92,0,0,0,1.61,1.61,7.2,7.2,0,0,1,1.53,1.64c.14.22.63.2.56-.08a3.17,3.17,0,0,0-1.09-1.53,15,15,0,0,1-1.53-1.37,13,13,0,0,1-2.09-3.55,11.35,11.35,0,0,1-.58-4.19,38.21,38.21,0,0,1,.5-4.37c.1-.73.24-1.48.28-2.21a5.76,5.76,0,0,0-.27-2.11c0-.06-.18-.15-.17,0S423.93,233.92,423.93,233.91Z" style="fill: rgb(22, 160, 133); transform-origin: 425.895px 243.699px;" id="elt7443nuseyn" class="animable"></path><path d="M433.57,265.52a10.59,10.59,0,0,0-.7,1.09,11.53,11.53,0,0,0-.52,1.06c-.34.68-.51,1.4-.88,2.08a15,15,0,0,1-2.21,3.52,16.39,16.39,0,0,1-6.37,4c-.68.26-1.4.33-2.11.53a5.36,5.36,0,0,0-2.11.9c-.3.26.11.47.41.39s.68-.24,1-.36.64-.18,1-.27c.67-.17,1.37-.28,2-.51a16.4,16.4,0,0,0,3.67-1.66,13,13,0,0,0,3.07-2.56,15.89,15.89,0,0,0,2.12-3.48c.37-.78.62-1.61,1-2.39.17-.37.31-.75.47-1.12s.29-.75.43-1.12c0-.12-.16-.23-.23-.14S433.55,265.53,433.57,265.52Z" style="fill: rgb(22, 160, 133); transform-origin: 426.203px 272.277px;" id="eldplp4no82yg" class="animable"></path><path d="M435.27,263.73A8.35,8.35,0,0,1,434,265a6.57,6.57,0,0,1-1.41.84,32.39,32.39,0,0,1-3.19,1.09,12.15,12.15,0,0,0-3.17,1.45,11.11,11.11,0,0,0-2.4,2.1,11.84,11.84,0,0,0-2,3.19c-.16.41.45.49.69.21a9.55,9.55,0,0,0,.7-1c.21-.31.25-.42.5-.77a10.12,10.12,0,0,1,.87-1.18,10.82,10.82,0,0,1,2.13-1.88,16.44,16.44,0,0,1,3-1.55c1-.41,2.15-.82,3.18-1.3a7.64,7.64,0,0,0,1.46-.92,5.1,5.1,0,0,0,.61-.63,2.07,2.07,0,0,0,.23-.39,4.46,4.46,0,0,0,.27-.45c.07-.13-.11-.22-.17-.14S435.25,263.74,435.27,263.73Z" style="fill: rgb(22, 160, 133); transform-origin: 428.645px 268.842px;" id="eljt0fnnvzqj" class="animable"></path><path d="M429.45,270.39a39.36,39.36,0,0,0-4.42,2.3,23,23,0,0,0-2,1.41,15.87,15.87,0,0,0-1.53,1.38,6.38,6.38,0,0,0-.66.74,1.16,1.16,0,0,0-.36.7c0,.3.42.26.57.15a6.7,6.7,0,0,0,1.06-1.15A11,11,0,0,1,423,275a18.24,18.24,0,0,1,2-1.63c1.5-1,3-1.89,4.51-2.95,0,0,0-.05,0,0Z" style="fill: rgb(22, 160, 133); transform-origin: 424.995px 273.771px;" id="el7apol86lj5n" class="animable"></path><path d="M418.72,256.69a2.52,2.52,0,0,0-.42.82,4.84,4.84,0,0,0-.08,1,9.7,9.7,0,0,0,.2,1.85,32.8,32.8,0,0,0,1.17,3.85,21.37,21.37,0,0,1,1.82,7.76,10.89,10.89,0,0,1-1.19,4.2c-.17.41.49.49.65.18a10.44,10.44,0,0,0,1.06-7.56c-.61-2.69-1.9-5.06-2.62-7.7a13.41,13.41,0,0,1-.42-2.17,6.68,6.68,0,0,1,0-1,9.74,9.74,0,0,0,0-1.08c0-.08-.11-.24-.21-.11S418.75,256.63,418.72,256.69Z" style="fill: rgb(22, 160, 133); transform-origin: 420.218px 266.609px;" id="elpzd2upwbh9" class="animable"></path><path d="M417.7,265.61a6.14,6.14,0,0,0-.14,1.2,9.56,9.56,0,0,0,.11,1.2,23.44,23.44,0,0,0,.52,2.35,33.63,33.63,0,0,1,1,4.84,11,11,0,0,1,.07,1.4,6.74,6.74,0,0,0,0,1.41c.11.42.54.36.7,0a3.08,3.08,0,0,0,.14-1.22,9.36,9.36,0,0,0-.09-1.17,19.89,19.89,0,0,0-.52-2.41c-.46-1.64-1-3.24-1.4-4.9a10.08,10.08,0,0,1-.17-1.33c0-.45-.08-.88-.09-1.33,0,0-.1-.12-.12-.06S417.7,265.62,417.7,265.61Z" style="fill: rgb(22, 160, 133); transform-origin: 418.836px 271.938px;" id="el8azwsgva0s" class="animable"></path><path d="M416.66,274.72c.25,1.12.5,2.26.74,3.39.12.56.21,1.13.35,1.68.07.28.2.69.54.35a1.6,1.6,0,0,0,.14-1.49,9.75,9.75,0,0,1-.26-1.15c-.18-.76-.37-1.5-.52-2.24-.35-1.69-.88-3.26-1.08-5a25.69,25.69,0,0,1,.7-9.07,23.7,23.7,0,0,1,1.65-4.39c.05-.1-.14-.24-.2-.14s0,0,0,0a23.39,23.39,0,0,0-3,8.39,19.44,19.44,0,0,0-.11,4.7A41,41,0,0,0,416.66,274.72Z" style="fill: rgb(22, 160, 133); transform-origin: 417.223px 268.447px;" id="elgjrjft2swv" class="animable"></path></g></g><g id="freepik--plants--inject-101" class="animable" style="transform-origin: 401.907px 321.196px;"><g id="freepik--Flower--inject-101" class="animable" style="transform-origin: 395.143px 289.032px;"><path d="M395.22,311.38a.24.24,0,0,1-.32,0c-7.46-8.41-7.87-20.84-1-31.69a.24.24,0,0,1,.33-.07.24.24,0,0,1,.08.33c-6.7,10.66-6.31,22.87,1,31.11a.24.24,0,0,1,0,.34Z" style="fill: rgb(69, 90, 100); transform-origin: 392.197px 295.512px;" id="elv1gfxkdgls" class="animable"></path><path d="M397.62,286.7a3.79,3.79,0,0,1-.34.2,8.82,8.82,0,0,1-2.58.68,8.14,8.14,0,0,0-4.64,1.9.2.2,0,0,1-.22,0,.18.18,0,0,1-.1-.19c.32-2.37,2.61-6.68,6-6.82,2.17-.09,2.71,1.1,2.84,1.62A2.54,2.54,0,0,1,397.62,286.7Zm-7.21,2a9.36,9.36,0,0,1,4.23-1.49,8.53,8.53,0,0,0,2.47-.64,2.13,2.13,0,0,0,1.13-2.35c-.23-.91-1.12-1.39-2.46-1.34-3.13.13-5.06,3.91-5.56,6Z" style="fill: rgb(69, 90, 100); transform-origin: 394.191px 285.989px;" id="elwdx1x1abk9b" class="animable"></path><path d="M390,289.49a.2.2,0,0,1-.17,0,.2.2,0,0,1-.13-.24c.67-2.16,3.9-4.63,6.4-4.89a.19.19,0,0,1,.21.18.19.19,0,0,1-.17.21c-2.58.26-5.49,2.76-6.07,4.61A.18.18,0,0,1,390,289.49Z" style="fill: rgb(69, 90, 100); transform-origin: 393.002px 286.934px;" id="elzkt3y5xmha" class="animable"></path><path d="M390.62,287.66a.25.25,0,0,1-.17,0,.22.22,0,0,1-.17-.25c.19-1.42-2.29-4.26-4-5.81a4.46,4.46,0,0,1-1.53-3.66,2.66,2.66,0,0,1,1.57-2,2.23,2.23,0,0,1,2.48.38c1.9,1.53,3.21,6,1.9,11.22A.2.2,0,0,1,390.62,287.66Zm-4.55-11.07a2.12,2.12,0,0,0-.89,1.46,4,4,0,0,0,1.39,3.27c.15.13,3.14,2.87,3.95,5,.85-4.57-.33-8.34-2-9.69a1.83,1.83,0,0,0-2-.32A2.13,2.13,0,0,0,386.07,276.59Z" style="fill: rgb(69, 90, 100); transform-origin: 387.985px 281.699px;" id="elliagaxy4l4e" class="animable"></path><path d="M390.62,287.66a.24.24,0,0,1-.15,0,.22.22,0,0,1-.19-.24c.36-3.84-2-8.26-2.92-9.29a.21.21,0,0,1,0-.3.22.22,0,0,1,.31,0c1,1.07,3.4,5.65,3,9.62A.24.24,0,0,1,390.62,287.66Z" style="fill: rgb(69, 90, 100); transform-origin: 389.006px 282.719px;" id="elx52g94unw4m" class="animable"></path><path d="M402.23,278.55a17.17,17.17,0,0,1-7.57.14c-2.79-3.08-3.77-4.53-4.64-7.6a5.12,5.12,0,0,1,0-2.27,1.18,1.18,0,0,1,1.33-.82,1.77,1.77,0,0,1,.94.89l2.16,3.36a8.66,8.66,0,0,1-.55-4.36c.07-.54.3-1.17.83-1.26s1.06.63,1.25,1.25a15.61,15.61,0,0,1,.64,4.94,16.37,16.37,0,0,1,3.21-4.23,1.11,1.11,0,0,1,.95-.44c.61.12.64,1,.46,1.58a10.59,10.59,0,0,1-1.95,3.75,12.6,12.6,0,0,1,5.12-2.45,1.13,1.13,0,0,1,.87.06c.49.33.22,1.1-.15,1.57a10.38,10.38,0,0,1-3.71,2.84c1-.18,3.38-.34,3.68.47S403.83,278.15,402.23,278.55Z" style="fill: rgb(22, 160, 133); transform-origin: 397.719px 272.834px;" id="elayu3rnsv0gd" class="animable"></path><g id="elznrmnwg1uxi"><path d="M402.23,278.55a17.17,17.17,0,0,1-7.57.14c-2.79-3.08-3.77-4.53-4.64-7.6a5.12,5.12,0,0,1,0-2.27,1.18,1.18,0,0,1,1.33-.82,1.77,1.77,0,0,1,.94.89l2.16,3.36a8.66,8.66,0,0,1-.55-4.36c.07-.54.3-1.17.83-1.26s1.06.63,1.25,1.25a15.61,15.61,0,0,1,.64,4.94,16.37,16.37,0,0,1,3.21-4.23,1.11,1.11,0,0,1,.95-.44c.61.12.64,1,.46,1.58a10.59,10.59,0,0,1-1.95,3.75,12.6,12.6,0,0,1,5.12-2.45,1.13,1.13,0,0,1,.87.06c.49.33.22,1.1-.15,1.57a10.38,10.38,0,0,1-3.71,2.84c1-.18,3.38-.34,3.68.47S403.83,278.15,402.23,278.55Z" style="opacity: 0.15; transform-origin: 397.719px 272.834px;" class="animable"></path></g></g><path d="M379.82,375.06a.48.48,0,0,1-.35-.19.54.54,0,0,1,.08-.73c8.32-6.67,17-11.35,32.1-12.55,10.79-.86,17.09-2.82,18.72-5.84a4.47,4.47,0,0,0-.27-4.31c-1.47-2.95-6.69-4.85-13.29-4.85a35.2,35.2,0,0,0-9,1.18c-11.48,3.07-23.11,11.81-28.28,21.25a.49.49,0,0,1-.43.26.41.41,0,0,1-.23-.07.52.52,0,0,1-.18-.7c5.29-9.66,17.17-18.6,28.89-21.74a36.15,36.15,0,0,1,9.16-1.17c7.11,0,12.56,2,14.21,5.35a5.53,5.53,0,0,1,.25,5.31c-1.85,3.42-8,5.44-19.5,6.35-14.89,1.18-23.39,5.79-31.57,12.34a.48.48,0,0,1-.29.11Z" style="fill: rgb(22, 160, 133); transform-origin: 405.192px 360.33px;" id="elp2xx9akdfj" class="animable"></path><path d="M378.78,371.82a.46.46,0,0,1-.28-.11.52.52,0,0,1-.07-.73c10.6-13.64,28.66-19.75,41.86-19.75a34.12,34.12,0,0,1,4.32.26.5.5,0,0,1,.42.57.51.51,0,0,1-.5.45,32.46,32.46,0,0,0-4.07-.25c-12.64,0-30.95,6.07-41.28,19.37a.5.5,0,0,1-.38.19Z" style="fill: rgb(22, 160, 133); transform-origin: 401.674px 361.525px;" id="eli7pq8kdck2" class="animable"></path><path d="M379.82,375.06a.48.48,0,0,1-.35-.19.54.54,0,0,1,.08-.73c8.32-6.67,17-11.35,32.1-12.55,10.79-.86,17.09-2.82,18.72-5.84a4.47,4.47,0,0,0-.27-4.31c-1.47-2.95-6.69-4.85-13.29-4.85a35.2,35.2,0,0,0-9,1.18c-11.48,3.07-23.11,11.81-28.28,21.25a.49.49,0,0,1-.43.26.41.41,0,0,1-.23-.07.52.52,0,0,1-.18-.7c5.29-9.66,17.17-18.6,28.89-21.74a36.15,36.15,0,0,1,9.16-1.17c7.11,0,12.56,2,14.21,5.35a5.53,5.53,0,0,1,.25,5.31c-1.85,3.42-8,5.44-19.5,6.35-14.89,1.18-23.39,5.79-31.57,12.34a.48.48,0,0,1-.29.11Z" style="fill: rgb(22, 160, 133); transform-origin: 405.192px 360.33px;" id="el0k3dt57asjko" class="animable"></path><path d="M378.78,371.82a.46.46,0,0,1-.28-.11.52.52,0,0,1-.07-.73c10.6-13.64,28.66-19.75,41.86-19.75a34.12,34.12,0,0,1,4.32.26.5.5,0,0,1,.42.57.51.51,0,0,1-.5.45,32.46,32.46,0,0,0-4.07-.25c-12.64,0-30.95,6.07-41.28,19.37a.5.5,0,0,1-.38.19Z" style="fill: rgb(22, 160, 133); transform-origin: 401.674px 361.525px;" id="elt3j59lv03s" class="animable"></path><g id="freepik--Plant--inject-101" class="animable" style="transform-origin: 393.862px 320.568px;"><path d="M369.09,336.35a31.17,31.17,0,0,0,1.47,3.76c1.62,3.56,3.63,7,4.34,10.86.33,1.79.4,3.71,1.4,5.23,2.31,3.5,4.61.71,5.92-1.57,3.2-5.56,6.37-10.91,12.2-14,2.89-1.52,6-2.76,8.52-4.82s4.49-5.22,4.05-8.46c-.27-1.94-1.37-3.76-1.26-5.72.14-2.46,2.14-4.42,4.28-5.64s4.54-2,6.52-3.44,3.48-4,2.73-6.34c-1.06-3.32-6-4.54-6.38-8-.33-2.69,2.15-4.73,3.39-6.84,1.47-2.48.86-6-1.06-7a11.93,11.93,0,0,0-4.4-1.09,12.69,12.69,0,0,0-8.73,3.59c-.78.69-1.47,1.48-2.27,2.14-2.76,2.26-5.86,2.2-9.09,3.13a11.46,11.46,0,0,0-7.26,5.59c-1.62,3.27-1.16,7.11-1.38,10.75a9.28,9.28,0,0,1-.69,3.35,12.54,12.54,0,0,1-3.2,3.54,54.56,54.56,0,0,0-4.09,3.8,21.6,21.6,0,0,0-5.57,9.63A14.44,14.44,0,0,0,369.09,336.35Z" style="fill: rgb(22, 160, 133); transform-origin: 393.862px 320.568px;" id="elgw54haq5kss" class="animable"></path><g id="elvm0ty4g8y1n"><path d="M369.09,336.35a31.17,31.17,0,0,0,1.47,3.76c1.62,3.56,3.63,7,4.34,10.86.33,1.79.4,3.71,1.4,5.23,2.31,3.5,4.61.71,5.92-1.57,3.2-5.56,6.37-10.91,12.2-14,2.89-1.52,6-2.76,8.52-4.82s4.49-5.22,4.05-8.46c-.27-1.94-1.37-3.76-1.26-5.72.14-2.46,2.14-4.42,4.28-5.64s4.54-2,6.52-3.44,3.48-4,2.73-6.34c-1.06-3.32-6-4.54-6.38-8-.33-2.69,2.15-4.73,3.39-6.84,1.47-2.48.86-6-1.06-7a11.93,11.93,0,0,0-4.4-1.09,12.69,12.69,0,0,0-8.73,3.59c-.78.69-1.47,1.48-2.27,2.14-2.76,2.26-5.86,2.2-9.09,3.13a11.46,11.46,0,0,0-7.26,5.59c-1.62,3.27-1.16,7.11-1.38,10.75a9.28,9.28,0,0,1-.69,3.35,12.54,12.54,0,0,1-3.2,3.54,54.56,54.56,0,0,0-4.09,3.8,21.6,21.6,0,0,0-5.57,9.63A14.44,14.44,0,0,0,369.09,336.35Z" style="fill: rgb(255, 255, 255); opacity: 0.2; transform-origin: 393.862px 320.568px;" class="animable"></path></g><path d="M379.57,349.13a.63.63,0,0,1-.63-.6c-1.45-23.88,9.25-45.27,30.15-60.24a.63.63,0,0,1,.88.15.64.64,0,0,1-.14.89c-20.52,14.7-31,35.7-29.62,59.13a.63.63,0,0,1-.6.67Z" style="fill: rgb(255, 255, 255); transform-origin: 394.45px 318.652px;" id="eloq0askf10a" class="animable"></path><path d="M385.78,316.81a.63.63,0,0,1-.41-.15.64.64,0,0,1-.08-.9c4.74-5.58,16.41-9.32,25-9.72a.62.62,0,0,1,.67.61.63.63,0,0,1-.61.66c-8.1.38-19.6,4-24.05,9.28A.61.61,0,0,1,385.78,316.81Z" style="fill: rgb(255, 255, 255); transform-origin: 398.051px 311.425px;" id="elvxv1bjihzf" class="animable"></path></g><g id="freepik--plant--inject-101" class="animable" style="transform-origin: 405.296px 347.015px;"><path d="M379.81,375.77c6.74-19.89,26.71-33.93,45.9-38.78,11.56-2.92,11.28-11.95,7.5-15.1-5.77-4.82-22.22-6-35.49,3.78s-24.93,22.82-22.3,50.1Z" style="fill: rgb(22, 160, 133); transform-origin: 405.296px 347.015px;" id="elwwemlxq9ag" class="animable"></path><g id="elthvejfyuwt"><path d="M379.81,375.77c6.74-19.89,26.71-33.93,45.9-38.78,11.56-2.92,11.28-11.95,7.5-15.1-5.77-4.82-22.22-6-35.49,3.78s-24.93,22.82-22.3,50.1Z" style="fill: rgb(255, 255, 255); opacity: 0.5; transform-origin: 405.296px 347.015px;" class="animable"></path></g><path d="M377.33,372.6h-.08a.63.63,0,0,1-.56-.7c4.07-35.63,35.23-48.62,51-47.65a.64.64,0,0,1-.08,1.28c-15.37-1-45.69,11.73-49.66,46.51A.64.64,0,0,1,377.33,372.6Z" style="fill: rgb(255, 255, 255); transform-origin: 402.487px 348.4px;" id="el03auvbtr5ncf" class="animable"></path></g></g><g id="freepik--plants--inject-101" class="animable" style="transform-origin: 91.1759px 319.833px;"><g id="freepik--flower--inject-101" class="animable" style="transform-origin: 98.085px 279.752px;"><path d="M99.29,277.2a15.31,15.31,0,0,1,5,8.14,21.16,21.16,0,0,1,.6,7.72,10.09,10.09,0,0,1-.25,1.44,3.91,3.91,0,0,0-.22.88c0,.12.19.3.32.2a3.47,3.47,0,0,0,.8-2.24,19.78,19.78,0,0,0,.1-3.69,17.55,17.55,0,0,0-2.45-8.39,15.76,15.76,0,0,0-3.91-4.19c-.06-.05-.09.09,0,.13Z" style="fill: rgb(69, 90, 100); transform-origin: 102.453px 286.334px;" id="eli42of3m7dzp" class="animable"></path><path d="M102.78,281.64a15.34,15.34,0,0,0,2.32-9.05c-.25-5.46-1.76-8.11-3.93-8.6A2.94,2.94,0,0,0,98,265.18s-2.1-1.4-3.25-.58-1.32,3.34-1.32,3.34a4,4,0,0,0-1.85-.57c-.61.13-2.7,4.39-1.21,7.21S97.81,282.33,102.78,281.64Z" style="fill: rgb(22, 160, 133); transform-origin: 97.4854px 272.8px;" id="el2aitjdxcu1v" class="animable"></path><g id="elo8k1osimtln"><path d="M102.78,281.64a15.34,15.34,0,0,0,2.32-9.05c-.25-5.46-1.76-8.11-3.93-8.6A2.94,2.94,0,0,0,98,265.18s-2.1-1.4-3.25-.58-1.32,3.34-1.32,3.34a4,4,0,0,0-1.85-.57c-.61.13-2.7,4.39-1.21,7.21S97.81,282.33,102.78,281.64Z" style="opacity: 0.25; transform-origin: 97.4854px 272.8px;" class="animable"></path></g><path d="M102,281.89a18.48,18.48,0,0,1-8.48-1.62c-4.61-2-6-3.77-5.75-6.25s2-2.71,3.59-.53c0,0,.42-1.26,1.27-1.4a2.77,2.77,0,0,1,2.28.92C95.18,273.45,97.24,279.92,102,281.89Z" style="fill: rgb(22, 160, 133); transform-origin: 94.871px 276.953px;" id="elyntnu5ujg5j" class="animable"></path><g id="elxl69tq4t9fn"><path d="M102,281.89a18.48,18.48,0,0,1-8.48-1.62c-4.61-2-6-3.77-5.75-6.25s2-2.71,3.59-.53c0,0,.42-1.26,1.27-1.4a2.77,2.77,0,0,1,2.28.92C95.18,273.45,97.24,279.92,102,281.89Z" style="opacity: 0.15; transform-origin: 94.871px 276.953px;" class="animable"></path></g><path d="M103.71,280.1a16.24,16.24,0,0,0,3.93-5.73c1.17-3.24,1.17-6.19-.91-5.72,0,0,.25-1.38-.8-1.85s-4,1.71-4.51,4.55S103.71,280.1,103.71,280.1Z" style="fill: rgb(22, 160, 133); transform-origin: 104.893px 273.418px;" id="elzzww1yltd9r" class="animable"></path><g id="elaftofa0585w"><path d="M103.71,280.1a16.24,16.24,0,0,0,3.93-5.73c1.17-3.24,1.17-6.19-.91-5.72,0,0,.25-1.38-.8-1.85s-4,1.71-4.51,4.55S103.71,280.1,103.71,280.1Z" style="opacity: 0.15; transform-origin: 104.893px 273.418px;" class="animable"></path></g><path d="M102,281.89c-2.71-.31-5.82-2.79-7.16-4.69-1.61-2.29-2-5.63-.75-7.45a5.2,5.2,0,0,1,3.8-1.85,2.68,2.68,0,0,1,3.25-1.13c1.65.42,2.88,4.55,3.11,8S103.37,280.78,102,281.89Z" style="fill: rgb(22, 160, 133); transform-origin: 98.8153px 274.243px;" id="eld217udq4x5j" class="animable"></path><path d="M104.22,283.66c-.73-.4-1.61-.51-3.82-.67s-4.15-.52-4-1.89,3.57-.17,3.57-.17-1.39-2.71-.14-3.49c1.63-1,3.12,2.38,3.12,2.38s.77-3.08,2-2.85,1.23,1.7.48,3.21S104.07,282.86,104.22,283.66Z" style="fill: rgb(69, 90, 100); transform-origin: 101.168px 280.309px;" id="elqkaeyumsrp" class="animable"></path></g><path d="M113.26,375.06a.48.48,0,0,0,.35-.19.53.53,0,0,0-.09-.73c-8.31-6.67-17-11.35-32.09-12.55-10.79-.86-17.09-2.82-18.72-5.84a4.47,4.47,0,0,1,.27-4.31c1.47-2.95,6.69-4.85,13.29-4.85a35.2,35.2,0,0,1,9,1.18c11.48,3.07,23.11,11.81,28.28,21.25a.49.49,0,0,0,.43.26.41.41,0,0,0,.23-.07.52.52,0,0,0,.18-.7c-5.29-9.66-17.17-18.6-28.89-21.74a36.21,36.21,0,0,0-9.16-1.17c-7.11,0-12.56,2-14.21,5.35a5.53,5.53,0,0,0-.25,5.31c1.85,3.42,8.05,5.44,19.5,6.35,14.89,1.18,23.39,5.79,31.57,12.34a.48.48,0,0,0,.29.11Z" style="fill: rgb(22, 160, 133); transform-origin: 87.8884px 360.33px;" id="elhuy450fs26" class="animable"></path><path d="M114.3,371.82a.46.46,0,0,0,.28-.11.53.53,0,0,0,.07-.73c-10.6-13.64-28.66-19.75-41.86-19.75a34.12,34.12,0,0,0-4.32.26.5.5,0,0,0-.42.57.51.51,0,0,0,.5.45,32.46,32.46,0,0,1,4.07-.25c12.64,0,30.95,6.07,41.28,19.37a.5.5,0,0,0,.38.19Z" style="fill: rgb(22, 160, 133); transform-origin: 91.4042px 361.525px;" id="elqi92r98fseq" class="animable"></path><path d="M113.26,375.06a.48.48,0,0,0,.35-.19.53.53,0,0,0-.09-.73c-8.31-6.67-17-11.35-32.09-12.55-10.79-.86-17.09-2.82-18.72-5.84a4.47,4.47,0,0,1,.27-4.31c1.47-2.95,6.69-4.85,13.29-4.85a35.2,35.2,0,0,1,9,1.18c11.48,3.07,23.11,11.81,28.28,21.25a.49.49,0,0,0,.43.26.41.41,0,0,0,.23-.07.52.52,0,0,0,.18-.7c-5.29-9.66-17.17-18.6-28.89-21.74a36.21,36.21,0,0,0-9.16-1.17c-7.11,0-12.56,2-14.21,5.35a5.53,5.53,0,0,0-.25,5.31c1.85,3.42,8.05,5.44,19.5,6.35,14.89,1.18,23.39,5.79,31.57,12.34a.48.48,0,0,0,.29.11Z" style="fill: rgb(22, 160, 133); transform-origin: 87.8884px 360.33px;" id="eltduj3nz5xf9" class="animable"></path><path d="M114.3,371.82a.46.46,0,0,0,.28-.11.53.53,0,0,0,.07-.73c-10.6-13.64-28.66-19.75-41.86-19.75a34.12,34.12,0,0,0-4.32.26.5.5,0,0,0-.42.57.51.51,0,0,0,.5.45,32.46,32.46,0,0,1,4.07-.25c12.64,0,30.95,6.07,41.28,19.37a.5.5,0,0,0,.38.19Z" style="fill: rgb(22, 160, 133); transform-origin: 91.4042px 361.525px;" id="el10p3q4g97rm" class="animable"></path><g id="freepik--plant--inject-101" class="animable" style="transform-origin: 99.2519px 320.568px;"><path d="M124,336.35a31.17,31.17,0,0,1-1.47,3.76c-1.62,3.56-3.63,7-4.34,10.86-.33,1.79-.4,3.71-1.4,5.23-2.31,3.5-4.61.71-5.92-1.57-3.2-5.56-6.37-10.91-12.2-14-2.89-1.52-6-2.76-8.52-4.82s-4.49-5.22-4-8.46c.27-1.94,1.37-3.76,1.26-5.72-.14-2.46-2.14-4.42-4.28-5.64s-4.54-2-6.52-3.44-3.48-4-2.73-6.34c1.06-3.32,6-4.54,6.38-8,.33-2.69-2.15-4.73-3.39-6.84-1.47-2.48-.86-6,1.06-7a11.93,11.93,0,0,1,4.4-1.09A12.69,12.69,0,0,1,91,286.84c.78.69,1.47,1.48,2.27,2.14,2.76,2.26,5.86,2.2,9.08,3.13a11.45,11.45,0,0,1,7.27,5.59c1.62,3.27,1.16,7.11,1.38,10.75a9.08,9.08,0,0,0,.69,3.35,12.54,12.54,0,0,0,3.2,3.54,54.56,54.56,0,0,1,4.09,3.8,21.6,21.6,0,0,1,5.57,9.63A14.44,14.44,0,0,1,124,336.35Z" style="fill: rgb(22, 160, 133); transform-origin: 99.2519px 320.568px;" id="eljyg48um5ws" class="animable"></path><g id="elwr52gkkyxbe"><path d="M124,336.35a31.17,31.17,0,0,1-1.47,3.76c-1.62,3.56-3.63,7-4.34,10.86-.33,1.79-.4,3.71-1.4,5.23-2.31,3.5-4.61.71-5.92-1.57-3.2-5.56-6.37-10.91-12.2-14-2.89-1.52-6-2.76-8.52-4.82s-4.49-5.22-4-8.46c.27-1.94,1.37-3.76,1.26-5.72-.14-2.46-2.14-4.42-4.28-5.64s-4.54-2-6.52-3.44-3.48-4-2.73-6.34c1.06-3.32,6-4.54,6.38-8,.33-2.69-2.15-4.73-3.39-6.84-1.47-2.48-.86-6,1.06-7a11.93,11.93,0,0,1,4.4-1.09A12.69,12.69,0,0,1,91,286.84c.78.69,1.47,1.48,2.27,2.14,2.76,2.26,5.86,2.2,9.08,3.13a11.45,11.45,0,0,1,7.27,5.59c1.62,3.27,1.16,7.11,1.38,10.75a9.08,9.08,0,0,0,.69,3.35,12.54,12.54,0,0,0,3.2,3.54,54.56,54.56,0,0,1,4.09,3.8,21.6,21.6,0,0,1,5.57,9.63A14.44,14.44,0,0,1,124,336.35Z" style="fill: rgb(255, 255, 255); opacity: 0.2; transform-origin: 99.2519px 320.568px;" class="animable"></path></g><path d="M113.5,349.13h0a.63.63,0,0,1-.6-.67c1.42-23.43-9.1-44.43-29.62-59.13a.65.65,0,0,1-.15-.89.64.64,0,0,1,.89-.15c20.9,15,31.6,36.36,30.15,60.24A.64.64,0,0,1,113.5,349.13Z" style="fill: rgb(255, 255, 255); transform-origin: 98.6582px 318.652px;" id="eln4492xy7q1" class="animable"></path><path d="M107.3,316.81a.64.64,0,0,1-.49-.22c-4.44-5.25-15.94-8.9-24-9.28a.62.62,0,0,1-.61-.66.62.62,0,0,1,.67-.61c8.55.4,20.22,4.14,25,9.72a.65.65,0,0,1-.08.9A.63.63,0,0,1,107.3,316.81Z" style="fill: rgb(255, 255, 255); transform-origin: 95.1066px 311.426px;" id="ela4y1nl2fgwt" class="animable"></path></g><g id="freepik--plant--inject-101" class="animable" style="transform-origin: 87.7825px 347.015px;"><path d="M113.27,375.77c-6.74-19.89-26.71-33.93-45.9-38.78-11.56-2.92-11.28-11.95-7.51-15.1,5.78-4.82,22.23-6,35.5,3.78s24.93,22.82,22.3,50.1Z" style="fill: rgb(22, 160, 133); transform-origin: 87.7825px 347.015px;" id="el4dns1oz0zwi" class="animable"></path><g id="el1gnp1m7vd7g"><path d="M113.27,375.77c-6.74-19.89-26.71-33.93-45.9-38.78-11.56-2.92-11.28-11.95-7.51-15.1,5.78-4.82,22.23-6,35.5,3.78s24.93,22.82,22.3,50.1Z" style="fill: rgb(255, 255, 255); opacity: 0.5; transform-origin: 87.7825px 347.015px;" class="animable"></path></g><path d="M115.75,372.6a.64.64,0,0,1-.63-.57c-4-34.78-34.32-47.47-49.66-46.51a.64.64,0,0,1-.08-1.28c15.79-1,46.94,12,51,47.65a.63.63,0,0,1-.57.7Z" style="fill: rgb(255, 255, 255); transform-origin: 90.5815px 348.393px;" id="elbeli19fkik" class="animable"></path></g></g></g><g id="freepik--character-3--inject-101" class="animable" style="transform-origin: 354px 241.51px;"><g id="freepik--Character--inject-101" class="animable" style="transform-origin: 354px 241.51px;"><g id="freepik--Bottom--inject-101" class="animable" style="transform-origin: 350.406px 269.83px;"><path d="M358,137.59c6.52,1.41,9,1.74,12.5,8.29,4.87,9.19,10.68,26.4,10.68,26.4l22.3,8.92-2,14.21s-17.12-3.5-27.2-6.17c-2.86-.76-3.88-2.58-5.28-4.65-1.16-1.72-12.81-19.48-12.81-19.48Z" style="fill: rgb(224, 224, 224); transform-origin: 379.835px 166.5px;" id="elygzbpp1fayh" class="animable"></path><path d="M346.94,135.76c6.85.69,10.17,1.43,12,2a18.57,18.57,0,0,1,4.43,6.87c3,8.14,5.83,13.45,8.09,37.17,1.87,19.57,2,28.45,2.43,49.47.43,21.88,1,39.31,1,39.31s-26.45-.2-40,1.36Z" style="fill: rgb(224, 224, 224); transform-origin: 354.89px 203.85px;" id="el2lv95hn0op" class="animable"></path><path d="M317.52,390.51c0,4.77-.68,7.25-2.53,9.9a8.64,8.64,0,0,1-9,3.24c-3.49-.84-7.2-3.45-8.17-7.41a24.39,24.39,0,0,1,.3-11Z" style="fill: rgb(38, 50, 56); transform-origin: 307.426px 394.57px;" id="elbhmukarjxn" class="animable"></path><path d="M304.6,311.74c2-13.68,4.7-19.88,5.13-23,0,0,2.48-32.21,3.07-59.56.28-13.17-.4-22,7-37.56L367,201.91c.86,7,7.27,54.37,6.85,95.5-.35,33.76-2,49.73-2,55.37,0,3.19.15,5.3.47,9.74.13,1.79,1.46,3,2.24,4.24a15,15,0,0,0,4.23,3.82c3.65,2.55,5.84,4.26,10.07,5.67a9.47,9.47,0,0,1,2.36,1,2.82,2.82,0,0,1,1.33,2.09,3.52,3.52,0,0,1-2,2.84c-3.67,2.28-8.39,2.08-12.55.95S370,380,365.82,379c-2.9-.73-5.95-1-8.63-2.35a4.34,4.34,0,0,1-2.14-1.86,4.92,4.92,0,0,1-.3-2.38,56.14,56.14,0,0,0,.24-8.2c-.23-3.35-1-9.55-1.38-12.9-.34-2.82-4.77-27.86-4.79-40.43a84.62,84.62,0,0,0-.86-11.48l-6-44.4c-1.59,7.53-7.71,29.4-9.49,39.36-2.18,12.16-6.05,27.63-10.72,49.9-1.31,6.28-3.86,14.09-4.43,17.87s-1,15.47-2.94,20.81c-2.92,8.11-12.13,8.47-13.26,1.59-1-5.85,2.22-22.12,2.21-26S302.22,327.68,304.6,311.74Z" style="fill: rgb(255, 189, 167); transform-origin: 346.739px 290.5px;" id="elzvmccfsqpda" class="animable"></path><path d="M302,363.65c-.56,4.76-1.06,8.37-1.45,11.13-1.24,4.74-1.7,7-2.38,10.08-1.12,5-.67,9.46.87,12.05,2.28,3.86,11,7.57,15.31,2.3,3.5-4.3,3.27-6.28,3-12.44-.09-1.94-.17-3.68-.23-5.33-.13-5.52-.08-6.6.62-10.13.4-2-.18-5,.11-7.18.33-2.32.47-3.33-.28-3.66,0,0-.25,3-.63,5.11-.35,2-.6,4-.93,5.95-.4,2.43-.72,4.87-1.31,7.27-.07.27-.19.58-.46.63s-.56-.35-.59-.68a1.46,1.46,0,0,0-.39-1.07A4.4,4.4,0,0,0,312,377a12.29,12.29,0,0,0-2.74-.59,12.05,12.05,0,0,0-4,0,2.27,2.27,0,0,0-1.07.51c-.28.25-.37.6-.6.87a.57.57,0,0,1-.75.16.74.74,0,0,1-.19-.41,8.33,8.33,0,0,1-.12-1.66c0-3.1.07-6.14.34-9.22a43.93,43.93,0,0,0,.37-7.33A9.23,9.23,0,0,0,302,363.65Z" style="fill: rgb(55, 71, 79); transform-origin: 307.832px 380.576px;" id="elj56k0ze7ln" class="animable"></path><path d="M352.23,375.89l48.08,8.21a3.55,3.55,0,0,1-.23,3.29c-1.65,2.24-7.39,5.41-14.68,4.85s-11.37-3.55-14.14-5.42a19.69,19.69,0,0,0-4.6-2.51c-1.75-.69-4.3-.61-6.15-.79a34.26,34.26,0,0,1-4.86-1.14,10.16,10.16,0,0,1-3.27-1.56,13.38,13.38,0,0,1-.33-2.66C352.08,377.5,352.15,376.54,352.23,375.89Z" style="fill: rgb(38, 50, 56); transform-origin: 376.329px 384.098px;" id="eltaqq2sj9azp" class="animable"></path><path d="M363,370.84a15,15,0,0,0-5.64-3.29c-1.74-.71-2.24-1.41-2.37-3.35,0-.16-1.39,0-1.61.25a2.39,2.39,0,0,0-.53,1.69c-.05,1.46-.2,2.14-.37,3.66-.39,3.36-1.11,4.45-.43,8.36,2.25,2.7,8.92,3.76,12.44,4.07,5.55.49,10.2,5.06,14.42,6.3,7.75,2.28,15.17.57,18-1.06,3.28-1.88,5-4.83,2.2-6.79-1.74-1.19-11.51-5.84-13.26-6.73-1.4-.71-2.74-1.55-4.11-2.31a2.21,2.21,0,0,0-.73-.3,2,2,0,0,0-.91.13,26,26,0,0,0-4.81,1.94,2.25,2.25,0,0,0-1.24,1.24c-.25,1,1.76,2.69.6,3.06s-2.9-1-3.75-1.42a25.35,25.35,0,0,1-7.79-5.33Z" style="fill: rgb(55, 71, 79); transform-origin: 376.143px 376.884px;" id="elb1m6fab2gdh" class="animable"></path><path d="M367.61,187.92l-.08,3.37c3.36,16.82,7.19,66,7.19,77.27,0,33.36,2.22,99.84,2.22,99.84s-4.79,4.11-13.39,4.11A36.53,36.53,0,0,1,352,370.78s-4.48-46.63-5.39-56.23a102.35,102.35,0,0,1-.28-12.35,85.88,85.88,0,0,0-.82-15.37l-3.59-28.33s-7.17,39.76-7.81,44.59c-3.25,24.21-13.44,68.25-13.44,68.25a33.33,33.33,0,0,1-12.34.67c-6.54-.95-8.15-4.19-8.15-4.19s2.36-47.75,3-57.51c.81-13,1.81-19.14,2.51-24.5.82-6.3.34-29.91.49-43.66.11-9.39.16-16.51.93-23.43,1.61-14.45,7.78-23.39,10-28.78l.26-2.85C325,193.05,354.22,196.53,367.61,187.92Z" style="fill: rgb(69, 90, 100); transform-origin: 338.56px 279.801px;" id="el44ea7v7as7s" class="animable"></path><path d="M341.92,258.5l5.78-27.13s8.91-2.21,13.1-7.59c0,0-.71,6.6-9.88,10.34l-5.55,23.72-.05,27.61Z" style="fill: rgb(55, 71, 79); transform-origin: 351.36px 254.615px;" id="elw07kk0v6bre" class="animable"></path></g><path d="M332.05,137.76l-8.25,1c-5.46,1.42-7.9,3.87-8.4,8.74a38,38,0,0,0,.52,15.83c1.83,6.81,6.7,23.49,6.7,23.49s-8,7.21-10.15,24.63c19.67,12.43,49.78,6.51,57.75-1.29-.52-13-3.34-32.42-2.6-36.83a16.34,16.34,0,0,0,.3-17.92c-6.74-10.19-16-17.72-18.52-17.68Z" style="fill: rgb(22, 160, 133); transform-origin: 341.459px 178.176px;" id="elxdjxcysn0yd" class="animable"></path><path d="M347,131.74c2.44,0,3.29,1.1,5.44,3.88,1.28,1.67,9.39,11.91,9.39,11.91s-7-6.21-11.78-8.66a10.62,10.62,0,0,0-3-1.13Z" style="fill: rgb(224, 224, 224); transform-origin: 354.415px 139.635px;" id="elfq3aqxgpje9" class="animable"></path><path d="M331.33,137.83s7.31,17.74,9,29.85-3.11,46.09-5,70.53c-1.25,15.8-3.14,39-3.14,39a80.29,80.29,0,0,1-14.1-1c-8-1.4-13.3-4.56-14.69-6.19,0,0,1.23-39.52,3-55,1.63-14.58,8.18-29.25,8.18-29.25L310,148s.37-6.57,6.52-8.5C322.38,137.71,331.33,137.83,331.33,137.83Z" style="fill: rgb(250, 250, 250); transform-origin: 322.042px 207.525px;" id="elscsh6emqs5" class="animable"></path><path d="M323.89,189l-3.83-14.67s.69-3.73,1.69-11.77c1.15-9.27.63-13.83-.81-16.74l-9.4,15.07,3,24.93a117.86,117.86,0,0,0-7.79,26.31C312.65,194.62,323.89,189,323.89,189Z" style="fill: rgb(245, 245, 245); transform-origin: 315.32px 178.975px;" id="el1fs8mnony3r" class="animable"></path><path d="M331.05,131.44a5,5,0,0,0-3,2.15,35.58,35.58,0,0,1-4.13,4.58s1.34,9.47,2.29,11.85c.83,2.06,9.76,9.73,9.76,9.73s-2.18,8.69-2.22,11.53,5.5,13.55,6.2,19.06c0,0,1.65-17.38.75-23.59-1.58-10.82-7.16-23.8-9.34-28.92Z" style="fill: rgb(235, 235, 235); transform-origin: 332.444px 160.89px;" id="elbn6r1v82krt" class="animable"></path><path d="M315.43,237.07c-1.72-2.49-1.94-4.42-4.42-6.57a7.8,7.8,0,0,1-2.34-3.32,25.81,25.81,0,0,1-1.31-6.47l-12.49,1.72c.4,4.17.57,10.22,1.9,14.56a69.35,69.35,0,0,0,3.14,8.62c1.08,2.36,2.27,4.59,5,5.31a12.78,12.78,0,0,1,2.32.62c.86.41,1.54,1.21,2.47,1.42s1.92-.25,2.88-.15a9.71,9.71,0,0,1,2.21.83,7.11,7.11,0,0,0,2.76.54,1.14,1.14,0,0,0,.72-.25c.43-.38.27-1.08,0-1.61-1.07-2.37-2.87-4.33-4.34-6.48a26.45,26.45,0,0,1-3.52-7.51c-.06-.2-.05-.5.16-.52a.31.31,0,0,1,.2.07c1.29.82,2,2.26,3.42,3a2.7,2.7,0,0,0,3.61-.67C318.09,239.67,316.78,239,315.43,237.07Z" style="fill: rgb(255, 189, 167); transform-origin: 306.703px 237.445px;" id="elm7jrvlqbi9" class="animable"></path><path d="M319.32,138.89s-7.75-.38-12.22,3.39-7.14,14.17-10.31,24.57a127.05,127.05,0,0,0-5.2,23.05c-.83,6.08,2.29,33.42,2.29,33.42s7.76,1.44,13.79-1.91L309,191.13l10.68-30.62A33.64,33.64,0,0,0,319.32,138.89Z" style="fill: rgb(224, 224, 224); transform-origin: 306.369px 181.254px;" id="elp55bz8wqfin" class="animable"></path><polygon points="415.68 162.28 377.53 176.36 367.63 222.14 368.49 223.04 404.76 208.9 416.55 163.18 415.68 162.28" style="fill: rgb(22, 160, 133); transform-origin: 392.09px 192.66px;" id="elm8mb0ymhde8" class="animable"></polygon><g id="elqmvabij1mc"><polygon points="378.39 177.26 368.49 223.04 367.63 222.14 377.53 176.36 378.39 177.26" style="opacity: 0.35; transform-origin: 373.01px 199.7px;" class="animable"></polygon></g><g id="elh0hkk9ixman"><polygon points="416.55 163.18 378.39 177.26 368.49 223.04 404.76 208.9 416.55 163.18" style="opacity: 0.25; transform-origin: 392.52px 193.11px;" class="animable"></polygon></g><g id="elktp0bal5p59"><g style="opacity: 0.2; transform-origin: 403.055px 200.823px;" class="animable"><path d="M398.92,199.71c.37.89,3.34,2.82,7.59,2.41l.68-2.65Z" id="elrsgg10ylfbn" class="animable" style="transform-origin: 403.055px 200.823px;"></path></g></g><g id="el5nrgxvzxkvo"><g style="opacity: 0.1; transform-origin: 396.409px 175.02px;" class="animable"><path d="M405.13,172.69s.14-.69.3-1.54-2.08-.37-5,1.07l-6.89,2.19c-2.93,1.44-5.7,2.52-5.86,3.36l-.3,1.54Z" id="el7bjteqf17tm" class="animable" style="transform-origin: 396.409px 175.02px;"></path></g></g><path d="M407.31,165.74c.11-.53-.77-.41-2-.07l-2.19.78s.86-2.23-4.34-.74c-5.73,1.64-5.81,4.52-5.81,4.52a26.21,26.21,0,0,1-2.75,1c-1.9.65-2.11,1-2.26,1.57l-.27,1,19.45-7.17S407.21,166.27,407.31,165.74Z" style="fill: rgb(55, 71, 79); transform-origin: 397.505px 169.499px;" id="ellpm87tphsl" class="animable"></path><path d="M405.3,168.7c-1.8.85-2.54,1.26-2.8,2.57-.28,1.49-.34,2.11-.34,2.11L392,177.54s.52-2.2.64-2.93-1.22-.72-3,.12l.39-1.83,15.75-6.11Z" style="fill: rgb(55, 71, 79); transform-origin: 397.71px 172.165px;" id="el7vcfhs0dl3x" class="animable"></path><path d="M405.66,172.71l.29-1.54c.17-.84-2.08-.37-5,1.07l-6.89,2.19c-2.93,1.44-5.71,2.51-5.87,3.36l-.29,1.54Z" style="fill: rgb(55, 71, 79); transform-origin: 396.93px 175.042px;" id="elwch6epaftbd" class="animable"></path><path d="M412.51,178.85l-1.62,6.3c-.34,1.27-6.58,4.25-9.72,4.69-6,.84-6.67,2.15-5.16,6.4,1.39,3.92,5.33,5.35,10.75,4.63a9.82,9.82,0,0,0,7.35-6.61c1.69-5,.66-10.41,1.32-13.36S414,177.07,412.51,178.85Z" style="fill: rgb(255, 189, 167); transform-origin: 405.439px 189.491px;" id="elu8imblafyda" class="animable"></path><path d="M331,130.19c-.83-2.4-7.7-5.36-11.92-12.19s-2-17.34,2.76-20.26a9.8,9.8,0,0,1,1.6-7.06,16.34,16.34,0,0,1,5-4.68,22.84,22.84,0,0,1,9-3.13A26.41,26.41,0,0,0,342,82a5.85,5.85,0,0,0,3.54-2.88,5.89,5.89,0,0,1,3.3,4.3,9.33,9.33,0,0,1,7.9.27,7.06,7.06,0,0,1,3.7,6.76,5.67,5.67,0,0,1,6.22,6.42c-.09.7-.31,1.38-.36,2.08a2.27,2.27,0,0,0,.66,1.92,1.22,1.22,0,0,0,1.82-.26,2.45,2.45,0,0,1-1.43,2.92,3.72,3.72,0,0,1-3.41-.45c.49.32-.52,3.1-.7,3.52a9.09,9.09,0,0,1-2.15,3.06c-1.32,1.24-3,1.92-4.41,3L350,118c-5.43,4.3-10.9,2.94-16.33,7.24C332.87,125.86,331,130.19,331,130.19Z" style="fill: rgb(224, 224, 224); transform-origin: 342.856px 104.655px;" id="elu9v128em5i" class="animable"></path><path d="M353.88,93c3.44,1.35,6.83,6.41,7.28,20.89.39,12.28-3.27,15.51-5.14,16.49s-5.43.79-9.06.36l.1,6.91s2.79,2.55,1.9,4.26-4.35,3.24-9.84,1.72c-6.24-1.72-7.79-5.79-7.79-5.79l-.66-15.43s-2,2.25-5.76-.82c-3.1-2.53-4.34-7-2.17-9.59s5.08-2.86,7.8-.17l1.85-1.06a35.25,35.25,0,0,0,11.3-4.32C351,102.13,353.27,96.12,353.88,93Z" style="fill: rgb(255, 189, 167); transform-origin: 341.418px 118.626px;" id="elise80djbm1l" class="animable"></path><path d="M341.38,110.18A1.35,1.35,0,0,0,341,110a4.42,4.42,0,0,0-.48-.15,2.29,2.29,0,0,0-.44-.09l-.22,0a.53.53,0,0,0-.25,0c-.08,0-.07.23,0,.27a.86.86,0,0,0,.23.06l.24,0,.44.1.44.14.2.08a.68.68,0,0,0,.23.07s.08-.08.08-.12A.22.22,0,0,0,341.38,110.18Zm-1.44,1h.95c.16,0,.39,0,.47-.12a.15.15,0,0,0,0-.16.41.41,0,0,0-.24-.11l-.31,0a4,4,0,0,0-.49,0,2.84,2.84,0,0,0-.51.06c-.13,0-.29,0-.34.18a.11.11,0,0,0,0,.12C339.57,111.2,339.79,111.16,339.94,111.17Zm1.26.44a3.2,3.2,0,0,0-.75.14l-.34.12a1.29,1.29,0,0,0-.16.09l-.15.14c0,.05,0,.2.06.2a3.59,3.59,0,0,0,.72-.17,4.94,4.94,0,0,1,.67-.12c.1,0,.13-.1.12-.19S341.3,111.6,341.2,111.61Z" style="fill: rgb(240, 153, 122); transform-origin: 340.461px 111.028px;" id="elxmv1i08tn1k" class="animable"></path><path d="M358.38,109.05s0,.11.08.11a1,1,0,0,0,.23-.06l.2-.08a3.73,3.73,0,0,1,.44-.14l.45-.11.23,0a.86.86,0,0,0,.23,0c.09,0,.1-.24,0-.28a.69.69,0,0,0-.25,0l-.21,0a3.12,3.12,0,0,0-.44.09,4,4,0,0,0-.49.15,1.28,1.28,0,0,0-.43.23A.21.21,0,0,0,358.38,109.05Zm2,.73s0-.08,0-.12-.22-.15-.34-.18a3,3,0,0,0-.51-.06,2.79,2.79,0,0,0-.5,0,1.67,1.67,0,0,0-.31,0,.38.38,0,0,0-.24.11.16.16,0,0,0,0,.15c.08.17.32.12.48.12h.46c.16,0,.32,0,.48,0S360.24,109.9,360.36,109.78Zm-1.92.73c0,.09,0,.18.12.19a5.39,5.39,0,0,1,.68.12,3.61,3.61,0,0,0,.72.18c.08,0,.09-.16.05-.2a.71.71,0,0,0-.15-.15.48.48,0,0,0-.16-.08l-.34-.13a3.19,3.19,0,0,0-.75-.13C358.51,110.3,358.45,110.44,358.44,110.51Z" style="fill: rgb(240, 153, 122); transform-origin: 359.38px 109.739px;" id="elvpy4iy97hii" class="animable"></path><path d="M346,117.6c-.19.22-.3.53-.47.77a5,5,0,0,1-.6.77,5.76,5.76,0,0,1-1.59,1.19,7,7,0,0,1-2.14.66,9.22,9.22,0,0,1-2.46.07s0,.06,0,.09a.25.25,0,0,0,.09,0,5.24,5.24,0,0,0,2.54.29c.13,0,.25-.06.37-.08a4.79,4.79,0,0,0,0,.76,5.62,5.62,0,0,0,.18,1.23,4.91,4.91,0,0,0,1.12,2.2s0,0,0,0a8.17,8.17,0,0,1-.87-2.12,6.55,6.55,0,0,1-.13-1.17,7.75,7.75,0,0,1,.07-1,6.65,6.65,0,0,0,1.43-.53,5.18,5.18,0,0,0,1.56-1.23,3.28,3.28,0,0,0,.92-1.91S346.06,117.56,346,117.6Z" style="fill: rgb(240, 153, 122); transform-origin: 342.387px 121.565px;" id="el9qudmk4prca" class="animable"></path><path d="M330.5,109.82l.27,6.81a3.2,3.2,0,0,0,3.17-3.41A3.52,3.52,0,0,0,330.5,109.82Z" style="fill: rgb(224, 224, 224); transform-origin: 332.223px 113.225px;" id="el10ow8egnlfrh" class="animable"></path><path d="M354.79,109.93a1.64,1.64,0,0,0,1.62,1.69,1.7,1.7,0,1,0-1.62-1.69Z" id="elvoxigibssld" class="animable" style="transform-origin: 356.49px 109.922px;"></path><path d="M341.82,111.11a1.75,1.75,0,1,0,1.76-1.82A1.78,1.78,0,0,0,341.82,111.11Z" id="elocqptfrhu4k" class="animable" style="transform-origin: 343.569px 111.04px;"></path><path d="M359.2,104.65l-4.41-1a2.16,2.16,0,0,1,2.65-1.75A2.33,2.33,0,0,1,359.2,104.65Z" style="fill: rgb(224, 224, 224); transform-origin: 357.02px 103.243px;" id="el9gg393t5zdm" class="animable"></path><path d="M344.83,121.06l5.31,1.45a2.69,2.69,0,0,1-3.29,2.14A3,3,0,0,1,344.83,121.06Z" style="fill: rgb(177, 102, 104); transform-origin: 347.44px 122.894px;" id="elotu883algh" class="animable"></path><path d="M347.87,124.71A2.79,2.79,0,0,0,345,122l-.21,0a3,3,0,0,0,2.07,2.58A2.72,2.72,0,0,0,347.87,124.71Z" style="fill: rgb(240, 153, 122); transform-origin: 346.33px 123.357px;" id="eldb4zazqqe4" class="animable"></path><path d="M347,130.73c-3.81-.31-11.89-2.37-13.28-5.51a8.42,8.42,0,0,0,2.95,3.94c2.44,2,10.36,3.89,10.36,3.89Z" style="fill: rgb(240, 153, 122); transform-origin: 340.375px 129.135px;" id="elvjwolljf5u" class="animable"></path><path d="M363.81,104.17l-.76,0a22,22,0,0,0-7.59.68c-2.41.89-3.24,1.78-4.58,1.87s-2.36-.72-5-1.32c-2.07-.48-5.5-.2-8.12.22l-.81.14a1.36,1.36,0,0,0-.87,1.42,3,3,0,0,0,.81,1.56,2,2,0,0,1,.28.63,28.18,28.18,0,0,0,1.08,4.35,5.56,5.56,0,0,0,1.07,1.53,4.43,4.43,0,0,0,.54.43l.31.2a4.54,4.54,0,0,0,.92.38l.16.05.24.06.26.05a6.37,6.37,0,0,0,.8.08h.35l.43,0a5.73,5.73,0,0,0,5.48-3.59c.8-1.72.54-4.07,2.07-4.15a.38.38,0,0,1,.15,0h.13c1.15.21,1.05,2.38,1.8,3.9a6.2,6.2,0,0,0,1.12,1.64l.27.25.14.12.15.11.13.09.15.09.11.07.08,0a4.7,4.7,0,0,0,1.34.46l.12,0a7.13,7.13,0,0,0,1.63.07,4.88,4.88,0,0,0,4.64-3.33,28.84,28.84,0,0,0,.87-4.47,1.39,1.39,0,0,1,.27-.6,3.17,3.17,0,0,0,.67-1.66C364.7,104.82,364.23,104.2,363.81,104.17ZM348,111.32a5.26,5.26,0,0,1-1.11,2.4h0a4.83,4.83,0,0,1-3.61,1.54,3.91,3.91,0,0,1-3.52-1.5,1.67,1.67,0,0,1-.12-.16l-.1-.16a.6.6,0,0,1-.09-.15l-.08-.14a.54.54,0,0,1-.05-.11.41.41,0,0,1,0-.09l-.08-.17h0a4.68,4.68,0,0,1-.18-.48h0c0-.1-.07-.2-.1-.29s-.09-.33-.12-.46a.37.37,0,0,1,0-.09l0-.09c-.29-1.15-.64-3.43-.08-4s2.07-1.18,4.56-1.07h.26a11,11,0,0,1,1.14.13l.44.09a8.54,8.54,0,0,1,1.11.3,2.68,2.68,0,0,1,.34.13,3.17,3.17,0,0,1,.37.15l.08,0,.13.07a2.09,2.09,0,0,1,.76.57C348.32,108.48,348.2,110,348,111.32ZM362.41,110c-.17.92-.55,2.91-2.27,3.87a4.2,4.2,0,0,1-1.83.52,3.88,3.88,0,0,1-3.75-1.54h0l-.07-.11-.08-.12a.21.21,0,0,0,0-.06l-.1-.18-.1-.21s0-.07-.05-.1,0,0,0-.06a.36.36,0,0,0,0-.09.14.14,0,0,0,0-.06,6.7,6.7,0,0,1-.26-.86c-.28-1.29-.45-2.79,0-3.54s2.26-1.63,4-2q.61-.1,1.14-.15h1l.31,0a4.93,4.93,0,0,1,.57.07l.14,0h0l.09,0,.14,0,.17,0a1.69,1.69,0,0,1,.27.1l.05,0a1.88,1.88,0,0,1,.62.36C362.88,106.5,362.63,108.82,362.41,110Z" style="fill: rgb(69, 90, 100); transform-origin: 350.363px 110.297px;" id="elxekiamqfsu" class="animable"></path><polygon points="350.77 108.74 350.9 118.8 356.27 117.41 350.77 108.74" style="fill: rgb(240, 153, 122); transform-origin: 353.52px 113.77px;" id="el91ytqibo1s" class="animable"></polygon><polygon points="332.05 157.97 334.98 157.26 336.81 159.7 330.22 161.39 332.05 157.97" style="fill: rgb(22, 160, 133); transform-origin: 333.515px 159.325px;" id="el2xdlz8jxq1t" class="animable"></polygon><g id="elfnxo60g2pc"><path d="M332.05,158a15.77,15.77,0,0,0,1.06,2.68l-2.89.74Z" style="opacity: 0.2; transform-origin: 331.665px 159.71px;" class="animable"></path></g><g id="eltmg3zley8r"><path d="M335,157.26a24.75,24.75,0,0,1-.8,3.12l2.63-.68Z" style="opacity: 0.2; transform-origin: 335.515px 158.82px;" class="animable"></path></g><path d="M330,169.45l-1.36,3.68a41.88,41.88,0,0,0,6.67-7.38c2.62-4,1.72-6.1,1.72-6.1l-2-2.39a14.61,14.61,0,0,1-2.12,7.09,24.73,24.73,0,0,1-4.24,4.83Z" style="fill: rgb(22, 160, 133); transform-origin: 332.91px 165.195px;" id="elo44crw5p7uc" class="animable"></path><path d="M330,169.45l-1.36,3.68a41.88,41.88,0,0,0,6.67-7.38c2.62-4,1.72-6.1,1.72-6.1l-2-2.39a14.61,14.61,0,0,1-2.12,7.09,24.73,24.73,0,0,1-4.24,4.83Z" style="fill: rgb(22, 160, 133); transform-origin: 332.91px 165.195px;" id="elvo8780rdm1" class="animable"></path><g id="elp49qzqmy4dn"><path d="M335.92,164.66a13.92,13.92,0,0,1-2.19-2c-.05.13-.12.28-.19.42a2.12,2.12,0,0,1-.11.21l-.16.3-.15.27c-.09.15-.17.31-.26.45-.41.6-.82,1.16-1.23,1.66l2.24,1.65c.5-.62,1-1.26,1.4-1.91C335.52,165.37,335.73,165,335.92,164.66Z" style="opacity: 0.2; transform-origin: 333.775px 165.14px;" class="animable"></path></g><g id="eljntbsv9cuf"><path d="M329.58,171.69l.4-2.24-1.36,3.68c.11-.1.94-.82,2-1.91h0l.47-.47.06-.06.45-.46.08-.1c.15-.15.3-.31.44-.47a.52.52,0,0,0,.1-.11l.45-.49.08-.09.47-.54,0,0a27.69,27.69,0,0,0,2-2.62,15.49,15.49,0,0,0,1-1.89A37.35,37.35,0,0,1,329.58,171.69Z" style="opacity: 0.2; transform-origin: 332.42px 168.525px;" class="animable"></path></g><path d="M330,161.44s-.56,2.58,2.06,5.17a19.79,19.79,0,0,0,6.67,3.8l-2-3.16,2-.79a11.74,11.74,0,0,1-4.24-2.56c-2.08-2-2.48-5.93-2.48-5.93Z" style="fill: rgb(22, 160, 133); transform-origin: 334.34px 164.19px;" id="elbl7wjmtf2sm" class="animable"></path><g id="el81ewtj9hp1j"><path d="M332.09,166.61c-2.62-2.6-2.06-5.17-2.06-5.17a7.11,7.11,0,0,0,2.8,5.28,22.09,22.09,0,0,0,5,2.94l-1-2.41,2,3.17A19.86,19.86,0,0,1,332.09,166.61Z" style="opacity: 0.2; transform-origin: 334.405px 165.93px;" class="animable"></path></g></g></g><g id="freepik--character-1--inject-101" class="animable" style="transform-origin: 139.166px 246.279px;"><g id="freepik--character--inject-101" class="animable" style="transform-origin: 139.166px 246.279px;"><g id="freepik--bottom--inject-101" class="animable" style="transform-origin: 139.28px 301.061px;"><path d="M120.23,358.09c-.19-4.08-1.79-45.23-1.79-45.23L137.81,328c-3.59,23.46-4.72,29.91-4.91,33.83h0a5.07,5.07,0,0,0-.15.83c-.16,4.65-5.49,7-9.68,10a76.38,76.38,0,0,1-11.3,6.91c-3,1.41-9.08,1.37-9.77-.57,5.1-3.66,11-7.65,15.09-11.89C119.05,365.11,120.46,363,120.23,358.09Z" style="fill: rgb(255, 168, 167); transform-origin: 119.905px 346.706px;" id="el42w8evyqxk8" class="animable"></path><path d="M93.34,383.78c-.25,0-.72,2.8.63,4,1.57,1.43,6.21,3.84,12.45,3.22s9.67-2.44,12.22-4.45,6.13-4.85,9-5.39c2.63-.5,5.5-1.6,6.36-2.38s.86-4.38.86-4.38Z" style="fill: rgb(38, 50, 56); transform-origin: 113.957px 382.75px;" id="el13u8nvq15bdh" class="animable"></path><path d="M133,360.59s.54,0,.68.82c.16,1,.28,3.88.65,5.52a29,29,0,0,1,.35,8.74c-.4,1.83-4.69,3-7.45,3.94a34.86,34.86,0,0,0-9,5.31c-3,2.33-9.22,4.57-13.28,4.51-6.19-.1-10.15-1.89-11.32-4.16-1.45-2.79-.2-4.35,7-7.44,1.36-.58,6.18-3.24,7.82-4.21,4.44-2.61,8.87-6.31,11-11.11a2.69,2.69,0,0,1,1.07-1.45,2.34,2.34,0,0,1,1.39-.09,12,12,0,0,1,3.39,1.14c.94.48,2.28,1.05,2.22,2.27a4.09,4.09,0,0,1-.3,1.24c-.1.24-.17.57,0,.73s.48,0,.67-.17a17.7,17.7,0,0,0,2-2.24,6.83,6.83,0,0,1,1.16-1.12,11,11,0,0,0,1.24-.75A2.1,2.1,0,0,0,133,360.59Z" style="fill: rgb(55, 71, 79); transform-origin: 113.978px 375.011px;" id="elkbuko83rmks" class="animable"></path><path d="M99.48,378.34c8.94.88,11.6,6.5,11.88,9.94a21.48,21.48,0,0,1-6.41,1.15c-6.19-.1-10.4-1.9-11.57-4.16C92,382.63,93.05,380.57,99.48,378.34Z" style="fill: rgb(250, 250, 250); transform-origin: 102.103px 383.885px;" id="elhwk6jxu75hv" class="animable"></path><path d="M112.91,378.83a.51.51,0,0,0,.28-.09.45.45,0,0,0,.08-.62,10.56,10.56,0,0,0-8-3.43.44.44,0,0,0-.4.47.43.43,0,0,0,.47.4,9.76,9.76,0,0,1,7.24,3.1A.42.42,0,0,0,112.91,378.83Z" style="fill: rgb(240, 240, 240); transform-origin: 109.114px 376.759px;" id="elxih1xrsx4k" class="animable"></path><path d="M116.83,376.69a.37.37,0,0,0,.28-.09.43.43,0,0,0,.08-.61,10.47,10.47,0,0,0-8-3.43.44.44,0,0,0,.07.87,9.76,9.76,0,0,1,7.25,3.09A.4.4,0,0,0,116.83,376.69Z" style="fill: rgb(240, 240, 240); transform-origin: 113.062px 374.624px;" id="eli1j6urd740n" class="animable"></path><path d="M120.48,374.23a.37.37,0,0,0,.28-.09.42.42,0,0,0,.08-.61,10.52,10.52,0,0,0-8-3.44.44.44,0,0,0-.41.47.45.45,0,0,0,.47.41,9.74,9.74,0,0,1,7.25,3.09A.42.42,0,0,0,120.48,374.23Z" style="fill: rgb(240, 240, 240); transform-origin: 116.683px 372.16px;" id="elbf3lkdc8xi8" class="animable"></path><path d="M124.06,371.77a.49.49,0,0,0,.28-.09.44.44,0,0,0,.09-.61c-1.66-2.22-5.49-3.76-8.76-3.5a.44.44,0,1,0,.07.87c2.94-.23,6.52,1.18,8,3.15A.48.48,0,0,0,124.06,371.77Z" style="fill: rgb(240, 240, 240); transform-origin: 119.862px 369.656px;" id="elce2fc4di7cs" class="animable"></path><path d="M160.05,328.15l19.67-2c.78,13.17-.12,27.93.54,40.29.13,2.33,1.53,18,1.05,22.89-.73,7.28-9.33,7-10.13,2.75s-2.59-22.82-2.78-24.71c-.57-7.91-4.07-20.84-7.17-34.88C161.07,331.83,160.2,328.82,160.05,328.15Z" style="fill: rgb(255, 168, 167); transform-origin: 170.73px 360.614px;" id="elhc4sehf0yg6" class="animable"></path><path d="M168.21,395.36c.17,4.23.77,7.05,2.22,9.55s4.27,3.34,7.15,2.67,6.59-2.54,7.48-6.17a23.19,23.19,0,0,0,.19-10.07Z" style="fill: rgb(38, 50, 56); transform-origin: 176.961px 399.571px;" id="elq98xte7sudj" class="animable"></path><path d="M180.19,365c1.18.12,1.42,5.8,2,11.49.62,6.11,2.39,8.66,2.95,13.67.64,5.72.29,8.27-1.78,11.68s-9.2,6.66-12.6,1.66c-2.76-4.09-2.8-8.56-2.43-14.25a125.82,125.82,0,0,0-.11-14.45c-.15-4.27-1-8.6,0-9.06.07.63.13,1.43.2,2.05s.13,2.79.79,2.82a8.62,8.62,0,0,0,0-1.61,1.92,1.92,0,0,1,.35-1.37,2.32,2.32,0,0,1,1.33-.56c1.16-.21,3.63-.26,4.81-.35a17.43,17.43,0,0,1,1.77,0,4.7,4.7,0,0,1,1.49.24,1.05,1.05,0,0,1,.63.59,2.08,2.08,0,0,1,.05.66,4.2,4.2,0,0,0,.13,1.17c0,.17.15.38.32.34s.19-.2.2-.34c0-.69-.06-1.19-.08-2,0-.37-.06-.88-.06-1.25S180.21,365.33,180.19,365Z" style="fill: rgb(55, 71, 79); transform-origin: 176.585px 385.536px;" id="el8kyelun6a4k" class="animable"></path><path d="M185.39,393.43c.14,3.55-.11,6-1.72,8.65-2.07,3.41-9.78,6.66-13.17,1.65-1.69-2.49-2.1-5.4-2.29-8.37C170.37,391.59,182.16,390.13,185.39,393.43Z" style="fill: rgb(250, 250, 250); transform-origin: 176.817px 398.952px;" id="elqcvugj1mpom" class="animable"></path><path d="M171.36,389.21l.14,0a17.29,17.29,0,0,1,10.21-.86.44.44,0,0,0,.21-.85,17.94,17.94,0,0,0-10.78.91.44.44,0,0,0-.22.58A.45.45,0,0,0,171.36,389.21Z" style="fill: rgb(240, 240, 240); transform-origin: 176.547px 388.136px;" id="elykg7xt4opor" class="animable"></path><path d="M181.5,384.05a.43.43,0,0,0,.38-.28.46.46,0,0,0-.26-.57c-5.26-1.89-10.55.7-10.77.82a.42.42,0,0,0-.19.58.44.44,0,0,0,.58.2s5.18-2.54,10.08-.77A.37.37,0,0,0,181.5,384.05Z" style="fill: rgb(240, 240, 240); transform-origin: 176.256px 383.677px;" id="elmwjo1pidhaa" class="animable"></path><path d="M181.27,380a.44.44,0,0,0,.12-.85,13.56,13.56,0,0,0-11,.78.44.44,0,0,0,.45.75,12.9,12.9,0,0,1,10.22-.71Z" style="fill: rgb(240, 240, 240); transform-origin: 175.945px 379.529px;" id="el061rpjnfda0p" class="animable"></path><path d="M181,375.52a.42.42,0,0,0,.37-.27.44.44,0,0,0-.24-.57c-5.42-2.14-10.84.77-11.06.9a.43.43,0,0,0-.18.59.44.44,0,0,0,.6.17s5.28-2.84,10.31-.85A.35.35,0,0,0,181,375.52Z" style="fill: rgb(235, 235, 235); transform-origin: 175.619px 375.147px;" id="elugqlmpfwjcb" class="animable"></path><path d="M169.41,195.71c3.61,8.71,7.57,14.84,7.75,31.13.38,34.63.34,59.26.34,59.26.17,3,2.5,8.51,3.32,24.35.72,13.86,0,32.82,0,32.82s-9.58,4.54-17.68,1.06c-3-11.31-7.61-40.89-10.87-56-3-13.74-5.77-33.83-5.77-33.83l-5.8,33.79s.72,13.6.12,21.59c-.71,9.3-5.54,35.32-5.54,35.32s-9.66,3.73-16.58-1.6c0,0-2.89-46.7-2.75-57.91.26-22,.83-70.14,6.24-91.37Z" style="fill: rgb(69, 90, 100); transform-origin: 148.543px 270.394px;" id="elm3cqufary2" class="animable"></path><path d="M181.32,340c-3.36,2-14.84,3.43-19.34,1.66l1.18,5.34s2.93,1.25,9.18,1,8.72-2.78,8.72-2.78Z" style="fill: rgb(69, 90, 100); transform-origin: 171.65px 344.017px;" id="elkn82k62xdaa" class="animable"></path><path d="M136.33,340.64c-3.6,1.57-14,1.1-18.22-1.25l.48,5.46s2,2.37,8.25,2.59,8.55-1.64,8.55-1.64Z" style="fill: rgb(69, 90, 100); transform-origin: 127.22px 343.424px;" id="eladte2maw6v8" class="animable"></path><path d="M146.51,254.48,143.2,230s-14.56-2-19.77-7.21c0,0,6.51,9.57,16.38,11.3l3.78,20.34L140.76,288Z" style="fill: rgb(55, 71, 79); transform-origin: 134.97px 255.395px;" id="elh5tt80n8wou" class="animable"></path></g><g id="freepik--Top--inject-101" class="animable" style="transform-origin: 139.166px 166.464px;"><path d="M137.21,140.21c-8.91-.81-10.39.12-22.1,4.72-10.41,4.09-26.82,11-26.82,11L86.2,172.73c7.8.56,47.13-14.42,47.13-14.42Z" style="fill: rgb(255, 168, 167); transform-origin: 111.705px 156.347px;" id="elggbta0lbv2e" class="animable"></path><path d="M96,164.3c4-1.5,4.11-10.93,4.08-13.31l-4,1.65C95.37,157.32,94.41,164.9,96,164.3Z" style="fill: rgb(242, 143, 143); transform-origin: 97.6099px 157.662px;" id="elun9ng29g77r" class="animable"></path><path d="M101.35,127.08c1.31-1.09,3.48-.54,5.51-2.49s3.54-3.69,4.09-4.13,2,.09,3.71-2.36,1.67-3.25.39-4.35c-.94-.81-2.51-.16-2.51-.16S102.27,120.19,101.35,127.08Z" style="fill: rgb(242, 143, 143); transform-origin: 108.665px 120.212px;" id="ell23wzs4tn28" class="animable"></path><path d="M96,164.3c1.23-1.72,3.23-5.31,2.37-13.85-1-10.2,0-15.76.62-18.08s.88-4.08,3.25-5.37,2.85-5.39,3.57-6.65a1.34,1.34,0,0,0,1.45,1.53c1.67.08,2.22-.45,3.67-1.42s1.59-1.78.94-2.7a1.65,1.65,0,0,0,1.2-2.38s1.93-1,.54-3.14c0,0,.61-1.49.17-2.16s-3-1.5-7.14-2.3-5-.82-7,2a115.52,115.52,0,0,0-7.52,11.45c-1.34,2.5-4.76,11.08-6.67,16.13a95.6,95.6,0,0,0-5,17.21c-1.85,9.46-1.55,15.91.85,17.36s8.39.61,11.62-.45S96,164.3,96,164.3Z" style="fill: rgb(255, 168, 167); transform-origin: 96.6827px 140.01px;" id="el7e0vjshvv55" class="animable"></path><path d="M113.63,112.24a55.08,55.08,0,0,0-6.15-3.74,36.44,36.44,0,0,1,6.34,3.16Z" style="fill: rgb(242, 143, 143); transform-origin: 110.65px 110.37px;" id="elw6wx2m671af" class="animable"></path><path d="M113.09,115.38a25.58,25.58,0,0,0-6.77-5.15A21.74,21.74,0,0,1,113.6,115Z" style="fill: rgb(242, 143, 143); transform-origin: 109.96px 112.805px;" id="elryqu07upiz" class="animable"></path><path d="M111.89,117.76c-1.22-1.23-4.43-4-4.43-4a39.85,39.85,0,0,1,5.06,3.74Z" style="fill: rgb(242, 143, 143); transform-origin: 109.99px 115.76px;" id="el0nl63xwaka8j" class="animable"></path><path d="M105.83,120.35a2.63,2.63,0,0,0,1.86-2.2c0-.76.29-.71.34.2s-.19.91.47.94,1.44-.63,1.3-.21-.7.67-2,.68A2,2,0,0,1,105.83,120.35Z" style="fill: rgb(242, 143, 143); transform-origin: 107.823px 119.016px;" id="el2r8tmsuoi6s" class="animable"></path><g id="el1tx3dk0g2df"><circle cx="151.42" cy="109.47" r="21.54" style="fill: rgb(22, 160, 133); transform-origin: 151.42px 109.47px; transform: rotate(-80.78deg);" class="animable"></circle></g><g id="el6kccwnxbxtn"><circle cx="151.42" cy="109.47" r="21.54" style="opacity: 0.3; transform-origin: 151.42px 109.47px; transform: rotate(-80.78deg);" class="animable"></circle></g><path d="M129.65,113.15c.34-5.86-1.44-9.31.23-14.53,1.22-3.81,3.59-6,6.82-7.84,9.12-5.21,24,0,29,9.85,6.11,12,3.68,21.93-.56,28a19,19,0,0,1-5.4,5.49Z" style="fill: rgb(22, 160, 133); transform-origin: 149.267px 111.422px;" id="elx2f1tonyiyd" class="animable"></path><g id="elrcki6gnmov"><path d="M129.65,113.15c.34-5.86-1.44-9.31.23-14.53,1.22-3.81,3.59-6,6.82-7.84,9.12-5.21,24,0,29,9.85,6.11,12,3.68,21.93-.56,28a19,19,0,0,1-5.4,5.49Z" style="opacity: 0.2; transform-origin: 149.267px 111.422px;" class="animable"></path></g><path d="M133.42,99.4s-4.59,4.16-4.31,18.62c.23,12,2.35,14.88,5.62,16.33,2,.87,5.11.82,8.82.51l0,5.73s-10.79,9-2.48,10.75c4.15.87,9.39-.37,13.18-2.9a18.1,18.1,0,0,0,5.31-5l.27-16.07c.36.35,2,.94,3.1-1.07,1.62-3.12,2.05-10.19-2.95-10.17a33.2,33.2,0,0,0-.79-6.7c-.81-3.47-5.11-7.78-7.42-9.51C147.75,96.92,139.09,96.2,133.42,99.4Z" style="fill: rgb(255, 168, 167); transform-origin: 146.565px 124.464px;" id="elzxrqpixu4yg" class="animable"></path><path d="M147.68,122.5l-5.42,2.15a2.86,2.86,0,0,0,3.74,1.74A3.06,3.06,0,0,0,147.68,122.5Z" style="fill: rgb(177, 102, 104); transform-origin: 145.067px 124.542px;" id="ellq5jtsxjs68" class="animable"></path><path d="M147.18,124a2.46,2.46,0,0,0-2.52,2.42s0,.1,0,.15a2.79,2.79,0,0,0,1.33-.17,3,3,0,0,0,1.81-2.3A2.19,2.19,0,0,0,147.18,124Z" style="fill: rgb(242, 143, 143); transform-origin: 146.23px 125.294px;" id="elvnnrkseyzg" class="animable"></path><path d="M146.59,109.23l3.52,1.2c.09-.39-.41-1.3-1.38-1.64S146.72,108.84,146.59,109.23Z" style="fill: rgb(55, 71, 79); transform-origin: 148.355px 109.545px;" id="elayqf8ij3kze" class="animable"></path><path d="M132,110.07l3.49-1.3a1.87,1.87,0,0,0-2.1-.39C132.43,108.74,131.86,109.68,132,110.07Z" style="fill: rgb(55, 71, 79); transform-origin: 133.734px 109.142px;" id="el3o5vq9yway6" class="animable"></path><polygon points="142.26 110.07 140.88 121.86 135.49 120.21 142.26 110.07" style="fill: rgb(242, 143, 143); transform-origin: 138.875px 115.965px;" id="elo1bo9lqh45d" class="animable"></polygon><path d="M143.55,134.86c3.89-.2,12.45-3.24,13.94-6.27a8.14,8.14,0,0,1-3.33,5c-3.78,2.23-10.59,3.58-10.59,3.58Z" style="fill: rgb(242, 143, 143); transform-origin: 150.52px 132.88px;" id="elq3gmug24uv8" class="animable"></path><path d="M136,113.54a1.7,1.7,0,0,1-1.53,1.81,1.6,1.6,0,0,1-1.79-1.47,1.71,1.71,0,0,1,1.53-1.81A1.6,1.6,0,0,1,136,113.54Z" style="fill: rgb(38, 50, 56); transform-origin: 134.34px 113.71px;" id="elw75ydmdwwn" class="animable"></path><path d="M149.12,113.54a1.71,1.71,0,0,1-1.53,1.81,1.6,1.6,0,0,1-1.79-1.47,1.7,1.7,0,0,1,1.53-1.81A1.6,1.6,0,0,1,149.12,113.54Z" style="fill: rgb(38, 50, 56); transform-origin: 147.46px 113.71px;" id="eliq5zf08lbb" class="animable"></path><path d="M130.48,105.32c3.25-4.13,6.61-4.83,11.3-4.93a16.9,16.9,0,0,1,11.62,5c4.09,4.36,5.45,7.2,6.7,11.47a27.13,27.13,0,0,1,1,10.88L159.83,130l0,1.27s1-.1,3.27-4.66,3.41-24.34-10.59-30.65c-11.33-5.09-17.58,1-17.58,1A15.27,15.27,0,0,0,130.48,105.32Z" style="fill: rgb(22, 160, 133); transform-origin: 147.477px 112.6px;" id="eluu2x6l2emql" class="animable"></path><path d="M143.5,140.56s-3.38,2.82.19,4.39,12.58-.24,16-3.38c0,0,8.16,1.26,10.6,2s5.5,8.06,4.59,23.42c-.53,9.05-4.53,23.17-4.53,23.17,2.65,8.21,5.27,16.86,6.61,26.65,0,0-9.69,6.75-32.65,6.32-18.77-.35-25.94-6-25.94-6,.76-11.6,1.5-55.41,6.86-66.17s11.93-10.78,11.93-10.78Z" style="fill: rgb(38, 50, 56); transform-origin: 147.665px 181.665px;" id="el0dj51virivbf" class="animable"></path><polygon points="152.46 159.02 149.54 158.31 147.7 160.75 154.3 162.44 152.46 159.02" style="fill: rgb(22, 160, 133); transform-origin: 151px 160.375px;" id="ele55aze7euh" class="animable"></polygon><g id="el1bo2d5igh6z"><path d="M152.46,159a14.89,14.89,0,0,1-1.06,2.68l2.9.74Z" style="opacity: 0.2; transform-origin: 152.85px 160.71px;" class="animable"></path></g><g id="el7gtq8qmx82i"><path d="M149.54,158.31a23.9,23.9,0,0,0,.79,3.12l-2.63-.68Z" style="opacity: 0.2; transform-origin: 149.015px 159.87px;" class="animable"></path></g><path d="M154.53,170.5l1.36,3.68a42.41,42.41,0,0,1-6.66-7.38c-2.63-4-1.72-6.1-1.72-6.1l2-2.39a14.61,14.61,0,0,0,2.12,7.09,25.11,25.11,0,0,0,4.24,4.83Z" style="fill: rgb(22, 160, 133); transform-origin: 151.624px 166.245px;" id="elak87bmj534n" class="animable"></path><g id="el1nuw6s7d1u5"><path d="M151.66,165.4a14.28,14.28,0,0,1-.89-1.63,13.35,13.35,0,0,1-2.22,2c.21.34.43.7.67,1.06.43.65.91,1.3,1.41,1.93l2.25-1.67C152.48,166.56,152.06,166,151.66,165.4Z" style="opacity: 0.2; transform-origin: 150.715px 166.265px;" class="animable"></path></g><g id="el2zllqynrp6x"><path d="M153.85,172.27c1.1,1.09,1.93,1.82,2,1.91l-1.36-3.68.4,2.25a37.25,37.25,0,0,1-6.75-7.81,14.1,14.1,0,0,0,1,1.86,27.16,27.16,0,0,0,2,2.62l.05.05c.15.18.3.36.46.53l.08.1.45.49.1.12.44.46.09.1.45.46.05.06.47.47Z" style="opacity: 0.2; transform-origin: 151.995px 169.56px;" class="animable"></path></g><path d="M154.49,162.5s.55,2.57-2.07,5.16a19.33,19.33,0,0,1-6.67,3.8l2-3.16-2-.79A11.57,11.57,0,0,0,150,165c2.09-2,2.48-5.93,2.48-5.93Z" style="fill: rgb(22, 160, 133); transform-origin: 150.144px 165.265px;" id="ela5t2z9i62rf" class="animable"></path><g id="ely02d6pv76m9"><path d="M152.42,167.66c2.63-2.59,2.07-5.16,2.07-5.16a7.09,7.09,0,0,1-2.81,5.27,22.09,22.09,0,0,1-5,2.94l1-2.41-2,3.17A19.86,19.86,0,0,0,152.42,167.66Z" style="opacity: 0.2; transform-origin: 150.11px 166.985px;" class="animable"></path></g><path d="M198.54,187c-3.83-11.15-10.32-23.17-14.08-31.13-5.38-11.4-8.23-11.59-16.73-12.86-3.66,3.86-6.54,17.14.9,26.44,3.11,6.88,12.51,21.6,12.51,21.6-.53,2.7-5.19,19.37-8.26,26.69a6.38,6.38,0,0,1-4.08,4.11c-3.23,1.25-6,5.16-8.52,7.07-2,1.5-3.43,1.86-3.3,2.46.16.78,1.49,1.48,3.69,1.28a10.26,10.26,0,0,0,4.27-1.4,12.36,12.36,0,0,1,1.91-1.22c1-.37.91.56.72,1.23a13.73,13.73,0,0,1-1.64,3.27,27.2,27.2,0,0,1-3.14,4.59c-2.09,2.29-4.94,3.82-6.81,6.3a3.06,3.06,0,0,0-.72,1.61.69.69,0,0,0,.11.47.71.71,0,0,0,.39.23c.94.26,1.94-.46,2.89-.24a5.31,5.31,0,0,1,1,.43,3.12,3.12,0,0,0,2.4,0,5.48,5.48,0,0,1,1.07-.44,4.19,4.19,0,0,1,1.55.22c1.94.4,3.9-.51,5.66-1.43a36.56,36.56,0,0,0,3.91-2.32,19.34,19.34,0,0,0,1.8-1.45,6.07,6.07,0,0,0,1.16-1.75c1.87-3.43,3.19-8.77,4.8-12.74h0c2.08-5.28,9.36-19.79,11.24-23.4C199,193.63,199.86,190.84,198.54,187Z" style="fill: rgb(255, 168, 167); transform-origin: 177.167px 195.59px;" id="elgkoqjy8gq7l" class="animable"></path></g></g></g><g id="freepik--character-2--inject-101" class="animable" style="transform-origin: 242.428px 262.46px;"><g id="freepik--character--inject-101" class="animable" style="transform-origin: 242.428px 262.46px;"><g id="freepik--bottom--inject-101" class="animable" style="transform-origin: 242.863px 312.822px;"><path d="M286,375.79c2.49-.49,2.35,8.21,3.95,13.45,1.71,5.62,4.63,9.37,6.1,14,1.67,5.25,1.86,7.92.08,12.53-1.43,3.71-9,10.37-13.17,6.13s-5.91-9.73-6.48-15.19A85.17,85.17,0,0,0,274,393.12c-1.16-4.47-3.71-12.29-1.89-12.93l1.11,2.56c1.52,1.77,12.52-.42,13.14-4.55Z" style="fill: rgb(55, 71, 79); transform-origin: 284.43px 399.517px;" id="elra6bq8mytd" class="animable"></path><path d="M227.39,388.15c.61,2.74-.24,10.21-.24,10.21s-1.24,2.56-5.48,4.19L220,392.1Z" style="fill: rgb(38, 50, 56); transform-origin: 223.805px 395.35px;" id="elrd38tqbmo7" class="animable"></path><polygon points="221.67 402.55 212.44 399.3 210.38 391.02 220.64 396.15 221.67 402.55" id="elj91ncnb4who" class="animable" style="transform-origin: 216.025px 396.785px;"></polygon><path d="M210.48,378.78l-.15-2.58c-1.27.59-1.47,10.81-8.28,17.85-5,5.2-10.7,8.23-13,10.95-3,3.64,3.92,9.89,13.17,8.11,4.58-.88,11.56-3.66,13.5-6.7s3.3-8,4.88-10.26,5.9-3.92,6.94-6.4c1.15-2.75.29-6.49-.44-9.06-.67-2.36-.21-4.87-1.29-4.94l-.26,1.9c-.65,1.24-4.36,2.86-9,3A10.36,10.36,0,0,1,210.48,378.78Z" style="fill: rgb(55, 71, 79); transform-origin: 208.221px 394.586px;" id="elbxt9ak76yg9" class="animable"></path><path d="M286,375.79c-1.79-18.85-2.29-29-4.48-39.55-3.34-16-9.92-24.33-9.92-24.33s1.55-29.57,2.28-43.83c1.84-36-4.7-43-9.05-51.44-1.31-2.57-6.57-13-6.57-13l-41.24-.39c-1.15,6-2.36,6.9-5.4,25.41s-5.87,72.66-4.65,92.58c.73,11.94,3.27,55.93,3.47,57.55.09.69,3.31,2.53,8.1,2,5.22-.57,7-2.63,7-3.13l.26-1.9c.72-11.27,6.16-28.24,7.28-39.73a90.18,90.18,0,0,0-.23-19l6.28-31a228,228,0,0,0,11.19,42.8c5.64,15,22.86,54,22.86,54,.8,2.11,12,3.52,13.14-4.55Z" style="fill: rgb(177, 102, 104); transform-origin: 246.5px 293.859px;" id="el5c94tg5asju" class="animable"></path><path d="M262.79,359.73c-5-11.84-10.19-24.05-12.7-30.71a259.88,259.88,0,0,1-11-40.7l-5.82,28.53a65.66,65.66,0,0,1,.57,19.51,180.53,180.53,0,0,1-3.85,18.9s-15,2.77-21.14-2c-.14-2.54-1.79-27.4-2.07-32-1.18-19.28.88-73.88,4-92.75A178.9,178.9,0,0,1,215,208.11c.45-1.65.83-3.08,1.21-5l.14-.73,42.54.39.24.49s5.25,10.44,6.57,13c.48.92,1,1.83,1.49,2.76,4.14,7.51,9.31,16.87,7.65,49.13-.68,13.38-1.39,40.31-1.56,43.6,1.46,1.91,6.79,11.17,8.53,22.83.63,4.17,1.58,11.51,2.26,19.28A23.29,23.29,0,0,1,262.79,359.73Z" style="fill: rgb(55, 71, 79); transform-origin: 245.257px 281.347px;" id="el04w8ufdga03z" class="animable"></path><path d="M239.11,288.32c-2.58-12.82-6.14-37.71-6.14-37.71s-8.46-1.41-13.07-6.53c1.69,6.86,10.26,10,10.26,10l6.34,35.13-3.21,27.61Z" style="fill: rgb(38, 50, 56); transform-origin: 229.505px 280.45px;" id="elppbe9yy29ah" class="animable"></path></g><g id="freepik--top--inject-101" class="animable" style="transform-origin: 242.428px 169.612px;"><path d="M251,153.11a4.89,4.89,0,0,0,.89-1.65c.38-1.25.41-2.6.8-3.85.82-2.59,3-4,4.8-5.88a28.68,28.68,0,0,0,5.12-6.63c2.62-5,2.64-11.15.86-16.54-.57-1.72-2-5.11-5.41-6.38-1.2-5.78-5.83-8.56-9.92-9.66a31.11,31.11,0,0,0-14.57,0c-2.48.47-4.93,1-7.43,1.43s-4.93.28-7.27.79a4.77,4.77,0,0,0-3.13,2,4.83,4.83,0,0,0,.26,4.84,14.36,14.36,0,0,0,3.54,3.63,3.62,3.62,0,0,0,1,5.48,7.85,7.85,0,0,0,1.38,7.87c.64.73,1.42,1.33,2,2.07,1,1.16.89,2.11,1,3.48A19.78,19.78,0,0,0,226,139a13,13,0,0,0,5.28,6.14,56.77,56.77,0,0,0,7.33,3.74,76.46,76.46,0,0,1,7.7,4.21,4.76,4.76,0,0,0,3,1.05A2.74,2.74,0,0,0,251,153.11Z" style="fill: rgb(38, 50, 56); transform-origin: 239.959px 127.898px;" id="elegfu3s5137" class="animable"></path><path d="M255.43,142.07a177.65,177.65,0,0,1-1.21-20c0-3.55-.27-9.31,3.49-11.25a9.92,9.92,0,0,1,8.17,1.63,13,13,0,0,1,4.18,4.26c2,3.39,2.45,5.75,2.66,9.81.2,3.78.22,7.28.14,11.07a55.35,55.35,0,0,0,.34,7.17,12.67,12.67,0,0,0,2.79,6.66,10.43,10.43,0,0,1-6.32-4.24,36.82,36.82,0,0,0,.36,9.84,12.42,12.42,0,0,0,5.2,8.07,29.9,29.9,0,0,1-5.35-.13,13.39,13.39,0,0,1-4.14-1,15.26,15.26,0,0,1-7.16-7.89,42.9,42.9,0,0,1-2.94-12.22Z" style="fill: rgb(38, 50, 56); transform-origin: 265.103px 137.849px;" id="elwhkjfqzplhj" class="animable"></path><path d="M225.67,155.36c-8.51.64-14.81,1.49-21.87,11.57-7.34,10.49-14.14,19-16.73,28.15-1.08,3.83,13.86-2.55,13.86-2.55l13.84-16.23Z" style="fill: rgb(177, 102, 104); transform-origin: 206.342px 175.832px;" id="el26ocbbd6191" class="animable"></path><path d="M210.2,232.54c.46-9.79,2.94-27.89,2.94-27.89s.1-6.28-.24-10a12.1,12.1,0,0,1-5.24-9.33c-.23-6.5,2.87-10.61,8.19-18.35a85.68,85.68,0,0,1,9.82-11.59,76.23,76.23,0,0,1,12.05-1.64c6.18-.27,7.9-.25,13.48-.18s14.22,2.46,16,3.08c3.23,1.11,3.67,9.93,1.82,19.42s-5.55,22.81-5.58,26.36c0,3.22,4.72,16.1,8.21,26.43C265.33,235,227.85,242.91,210.2,232.54Z" style="fill: rgb(22, 160, 133); transform-origin: 239.649px 195.542px;" id="el8bpx2oo2xwj" class="animable"></path><g id="el36532j1b2ns"><path d="M210.2,232.54c.46-9.79,2.94-27.89,2.94-27.89s.1-6.28-.24-10a12.1,12.1,0,0,1-5.24-9.33c-.23-6.5,2.87-10.61,8.19-18.35a85.68,85.68,0,0,1,9.82-11.59,76.23,76.23,0,0,1,12.05-1.64c6.18-.27,7.9-.25,13.48-.18s14.22,2.46,16,3.08c3.23,1.11,3.67,9.93,1.82,19.42s-5.55,22.81-5.58,26.36c0,3.22,4.72,16.1,8.21,26.43C265.33,235,227.85,242.91,210.2,232.54Z" style="fill: rgb(255, 255, 255); opacity: 0.5; transform-origin: 239.649px 195.542px;" class="animable"></path></g><path d="M267.22,156.62c7.52,1.48,8.69,2.38,11.58,7.09s15.85,30,19.13,36.92c2.45,5.14.93,7.93-6.22,10.66-2.82,1.07-11.53-8.67-11.53-8.67l-2.34,0-13.68-24.35C262.19,176,258.13,158,267.22,156.62Z" style="fill: rgb(177, 102, 104); transform-origin: 280.277px 183.996px;" id="elmodffbsfmv" class="animable"></path><path d="M294.34,199.32c-2.73-3.76-6.87-5-11.62-4.42a21.45,21.45,0,0,0-7.86,2.39l.77,1.37Z" style="fill: rgb(154, 74, 77); transform-origin: 284.6px 197.042px;" id="elt13oy8s88g" class="animable"></path><g id="el6jxvxlp1fyh"><path d="M255.1,192.17a13.68,13.68,0,0,1-13.38,6.48,14.45,14.45,0,0,1-11.82-8.37s-.2,10.08,11.68,10.78S255.1,192.17,255.1,192.17Z" style="fill: rgb(22, 160, 133); opacity: 0.5; transform-origin: 242.5px 195.688px;" class="animable"></path></g><path d="M224.89,113.91c-2.7,1.59-3.73,3.38-3.58,18.75.12,11.92,3.12,15.11,6.51,16.3a20.76,20.76,0,0,0,8.07.63v5.9s-6.22,5.42,2.3,5.75c12.71.5,14.38-7,14.38-7l.17-14.12s2,1.73,5-.83,4.06-8,1.7-10.44-5.69-1.1-7.22,2c-.51,1-3.25,2.66-3.48-1.6s.17-12.08-5.36-15.31C233.7,114.41,234.33,122.23,224.89,113.91Z" style="fill: rgb(177, 102, 104); transform-origin: 241.013px 137.587px;" id="elkj75eazlxot" class="animable"></path><path d="M228.1,128.17a1.7,1.7,0,1,1-1.67-1.72A1.7,1.7,0,0,1,228.1,128.17Z" style="fill: rgb(38, 50, 56); transform-origin: 226.4px 128.15px;" id="elxnbow5r0kta" class="animable"></path><path d="M241.37,128.33a1.7,1.7,0,1,1-1.67-1.72A1.7,1.7,0,0,1,241.37,128.33Z" style="fill: rgb(38, 50, 56); transform-origin: 239.67px 128.31px;" id="el7m5slvniv9b" class="animable"></path><path d="M239.41,138.63l-4.75,1.67a2.47,2.47,0,0,0,3.17,1.63A2.64,2.64,0,0,0,239.41,138.63Z" style="fill: rgb(154, 74, 77); transform-origin: 237.102px 140.347px;" id="elirpckfz40w" class="animable"></path><path d="M223.66,124.45l3.51-1.28a1.8,1.8,0,0,0-2.34-1.15A2,2,0,0,0,223.66,124.45Z" style="fill: rgb(38, 50, 56); transform-origin: 225.373px 123.179px;" id="elbbi81gx9rgu" class="animable"></path><path d="M239.4,123.58l3.48,1.35a1.78,1.78,0,0,0-1-2.4A2,2,0,0,0,239.4,123.58Z" style="fill: rgb(38, 50, 56); transform-origin: 241.219px 123.673px;" id="elltn0up59iw" class="animable"></path><polygon points="233.82 125.09 233.69 135.97 228.2 134.86 233.82 125.09" style="fill: rgb(154, 74, 77); transform-origin: 231.01px 130.53px;" id="el2zfkesetb9d" class="animable"></polygon><path d="M235.89,149.59c3.88-.51,10.38-1.38,14-7.21,0,0-1.09,4-3.66,5.83-3.61,2.53-10.37,3.21-10.37,3.21Z" style="fill: rgb(154, 74, 77); transform-origin: 242.875px 146.9px;" id="elq4p1hgoaxq" class="animable"></path><path d="M252.13,216.17c4.46.17,24.61-1.55,28.95-2.1s10.63-1.72,13.89-3.83c3.06-2,4.66-4.17,3.8-6.11s-5.85-7-10.32-7.73c-6.72-1.15-9.07.68-12.82,2.26-5.42,2.28-10.23,4.27-13.84,4.5-2.4.15-3.79-1.69-5.6-3-1.45-1-2.72-1.95-3.68-1.95a47.42,47.42,0,0,0-5.29.34c-.83.09-2.3.33-3.2.36-2.44.09-3,.65-2.21,1.75,0,0-.31.33-3.8-1.13s-3.23-2.44-5.65-3.15-3.59,0-3.22,1.27a2,2,0,0,0-2.18-.17c-1.17.68-.89,1.42-.36,2a9.36,9.36,0,0,0,1.15,1s-1.45,1.11-.71,2.14,4.31,3.87,4.79,4.44a32.51,32.51,0,0,0,4,2.49s-2.57-.57-4.37-.75-3.48,1.56-2.05,2.21,6.28,1.9,7.8,2.51a37.49,37.49,0,0,0,6.33,2.14C244.94,215.77,247.67,216,252.13,216.17Z" style="fill: rgb(177, 102, 104); transform-origin: 262.572px 206.111px;" id="elr1swpxphlvj" class="animable"></path><path d="M241.81,200.69a3.42,3.42,0,0,0,1.12.76,7.19,7.19,0,0,0,1.25.45,4.71,4.71,0,0,0,1.28.15c.43,0,.9-.06,1.35-.11a18.41,18.41,0,0,1,2.78-.09,6.2,6.2,0,0,1,2.71.67,10.31,10.31,0,0,0-2.71-.18c-.9,0-1.81.15-2.72.24-.46,0-.92.08-1.4.07a4.6,4.6,0,0,1-1.44-.27,5.44,5.44,0,0,1-1.26-.67A2.93,2.93,0,0,1,241.81,200.69Z" style="fill: rgb(154, 74, 77); transform-origin: 247.055px 201.67px;" id="ele0tjxjcixuc" class="animable"></path><path d="M229.14,197.68l1.84,1.38a14.22,14.22,0,0,0,1.88,1.29c1.33.76,2.63,1.57,3.93,2.38l.49.3a4,4,0,0,0,.46.26l1,.45,2.13.87c1.41.59,2.84,1.16,4.21,1.87-1.47-.46-2.93-.92-4.39-1.41-.73-.24-1.45-.5-2.17-.77l-1.08-.45-.55-.28-.48-.31c-1.3-.82-2.59-1.64-3.86-2.51A22,22,0,0,1,229.14,197.68Z" style="fill: rgb(154, 74, 77); transform-origin: 237.11px 202.08px;" id="el02vrjh2tbacc" class="animable"></path><path d="M227.75,200.44c1.22.83,2.44,1.63,3.6,2.59l1.7,1.4a8.93,8.93,0,0,0,1.73,1.24c1.32.64,2.65,1.28,3.95,2a16.45,16.45,0,0,1,1.93,1.13,12.27,12.27,0,0,1,1.65,1.49,15.42,15.42,0,0,0-3.79-2.18c-1.36-.58-2.7-1.21-4-1.84a8.94,8.94,0,0,1-1.83-1.35c-.56-.49-1.11-1-1.63-1.5s-1.06-.95-1.64-1.45S228.28,201,227.75,200.44Z" style="fill: rgb(154, 74, 77); transform-origin: 235.03px 205.365px;" id="el6jouz58muwu" class="animable"></path><path d="M235.81,209.51a17.65,17.65,0,0,1,2.89,1.34,12.74,12.74,0,0,1,1.33.88,6.06,6.06,0,0,1,1.18,1.08c-.9-.57-1.81-1.06-2.72-1.59A28.18,28.18,0,0,1,235.81,209.51Z" style="fill: rgb(154, 74, 77); transform-origin: 238.51px 211.16px;" id="elfkw3x7a9np7" class="animable"></path><path d="M246.34,207.17a10.46,10.46,0,0,0,1.26,0,9,9,0,0,1,1.29,0,2.42,2.42,0,0,1-1.26.46A1.67,1.67,0,0,1,246.34,207.17Z" style="fill: rgb(154, 74, 77); transform-origin: 247.615px 207.391px;" id="el7t1p3w72ni6" class="animable"></path><path d="M243.9,211.29a1.17,1.17,0,0,0,.5.29l.56.13a4.3,4.3,0,0,1,1.18.39,2.87,2.87,0,0,1-1.27,0,1.86,1.86,0,0,1-.62-.26A.73.73,0,0,1,243.9,211.29Z" style="fill: rgb(154, 74, 77); transform-origin: 245.02px 211.731px;" id="elwtc44pdficm" class="animable"></path><path d="M196.59,204.71c5.84-2,6.7-2.88,10.92-10.3,4.05-7.12,6-10.37,6.84-11.54s2.24-1.2,4-.65a33.19,33.19,0,0,0,7.57,1.85,13.1,13.1,0,0,0,4.8-.34,25.09,25.09,0,0,1,4.48-.08,34.25,34.25,0,0,0,6.55-.14c2-.33,1.43-1.69,1.43-1.69a10.64,10.64,0,0,0,3.58-.32,2.16,2.16,0,0,0,1.26-1.86,1.81,1.81,0,0,0,.93-3.09,5.4,5.4,0,0,0-2.23-.69,2.39,2.39,0,0,0-.22-2.05c-.66-.88-3.77-1.77-6.53-2.71s-6-1.57-8.75-2.33c3-1.55,4.35-3.05,4.29-5-.05-1.53-.93-.8-2.82,0a32.09,32.09,0,0,1-7,1.61c-2.84.43-6.55.54-10.33,2.19-2.66,1.16-5,2.7-9,6.25a152.21,152.21,0,0,0-15.78,15.28c-4.58,5.23-5.68,13.87-4,15.5S192.31,206.16,196.59,204.71Z" style="fill: rgb(177, 102, 104); transform-origin: 217.673px 184.343px;" id="elas7wsayw69r" class="animable"></path><path d="M223.19,167.66c1.35.08,2.7.11,4,.26a19.09,19.09,0,0,1,2,.3,11.3,11.3,0,0,1,2,.55c-1.35-.17-2.68-.29-4-.43-.67-.08-1.34-.15-2-.25A13.57,13.57,0,0,1,223.19,167.66Z" style="fill: rgb(154, 74, 77); transform-origin: 227.19px 168.215px;" id="el3kwm67z7w48" class="animable"></path><path d="M246.71,175.86a33.37,33.37,0,0,1-3.74-.72c-1.24-.26-2.49-.41-3.76-.6s-2.5-.45-3.74-.75a15.29,15.29,0,0,1-3.62-1.22,10.5,10.5,0,0,0,1.82.52c.62.14,1.24.27,1.86.38,1.25.23,2.5.46,3.75.65s2.52.37,3.76.71S245.47,175.58,246.71,175.86Z" style="fill: rgb(154, 74, 77); transform-origin: 239.28px 174.215px;" id="elwdmzzkfwaz" class="animable"></path><path d="M248,179.64c0-.17-.19-.25-.33-.32a3.36,3.36,0,0,0-.45-.14,7.77,7.77,0,0,0-.95-.14c-.64-.09-1.29-.12-1.94-.22-1.29-.21-2.54-.55-3.8-.86a28,28,0,0,0-3.78-.71,31,31,0,0,1-3.82-.73c1.28.19,2.57.28,3.86.41a23,23,0,0,1,3.85.62c1.25.35,2.49.68,3.75.95.62.14,1.27.2,1.91.33a7.81,7.81,0,0,1,.95.25,2.53,2.53,0,0,1,.45.19C247.85,179.35,248,179.46,248,179.64Z" style="fill: rgb(154, 74, 77); transform-origin: 240.465px 178.08px;" id="eltpgz409nm5s" class="animable"></path><path d="M243.17,181.82a3,3,0,0,0-1.69-.55c-.6-.07-1.21-.11-1.82-.15-1.22-.14-2.43-.22-3.64-.33s-2.42-.25-3.63-.4a5.54,5.54,0,0,0-3.44.79,5.52,5.52,0,0,1,1.62-.88,5.23,5.23,0,0,1,1.85-.23c1.21.08,2.43.2,3.65.3s2.44.22,3.63.42c.6.09,1.21.16,1.81.28A2.83,2.83,0,0,1,243.17,181.82Z" style="fill: rgb(154, 74, 77); transform-origin: 236.06px 180.941px;" id="elme0tpwnqzap" class="animable"></path><path d="M225.65,165.37c-3.58.6-7.25.95-10.51,2.54a36.31,36.31,0,0,0-8.77,6.26c-2.76,2.37-5.5,4.74-8.14,7.23s-5.21,5-7.71,7.69c1.15-1.41,2.35-2.77,3.57-4.12s2.51-2.64,3.8-3.93c2.58-2.56,5.34-4.95,8.06-7.35s5.59-4.78,9-6.23a22.24,22.24,0,0,1,5.28-1.5C222,165.68,223.84,165.56,225.65,165.37Z" style="fill: rgb(154, 74, 77); transform-origin: 208.085px 177.23px;" id="elem6xl1ozayp" class="animable"></path></g></g></g><g id="freepik--speech-bubble--inject-101" class="animable" style="transform-origin: 245.02px 73.3502px;"><g id="freepik--speech-bubble--inject-101" class="animable" style="transform-origin: 245.02px 73.3502px;"><g id="freepik--speech-bubble--inject-101" class="animable" style="transform-origin: 245.02px 73.3502px;"><path d="M276.68,55.07H213.36A2.38,2.38,0,0,0,211,57.45V81.62A2.37,2.37,0,0,0,213.36,84h27.15L244,90.93a1.27,1.27,0,0,0,2.27,0L249.7,84h27a2.38,2.38,0,0,0,2.39-2.38V57.45A2.39,2.39,0,0,0,276.68,55.07Z" style="fill: rgb(255, 255, 255); transform-origin: 245.045px 73.3501px;" id="elxsb2485y9en" class="animable"></path><path d="M245.11,92.06a1.69,1.69,0,0,1-1.52-.94l-3.34-6.69H213.36a2.81,2.81,0,0,1-2.81-2.81V57.45a2.81,2.81,0,0,1,2.81-2.81h63.32a2.81,2.81,0,0,1,2.81,2.81V81.62a2.81,2.81,0,0,1-2.81,2.81H250l-3.35,6.69A1.68,1.68,0,0,1,245.11,92.06ZM213.36,55.49a2,2,0,0,0-2,2V81.62a2,2,0,0,0,2,2h27.41l3.58,7.16a.87.87,0,0,0,1.51,0l3.58-7.16h27.24a2,2,0,0,0,2-2V57.45a2,2,0,0,0-2-2Z" style="fill: rgb(22, 160, 133); transform-origin: 245.02px 73.3502px;" id="elkb0cjkobd2m" class="animable"></path></g><path d="M218.11,70.37h2.13l.32-2.74h-2.34l.19-1.44h2.31l.35-3h1.1l-.35,3h2.7l.35-3H226l-.35,3h2.17l-.18,1.44h-2.16l-.31,2.74h2.35l-.18,1.44H225l-.32,2.82h-1.11l.33-2.82h-2.7l-.32,2.82h-1.11l.33-2.82h-2.15Zm5.93,0,.32-2.74h-2.71l-.31,2.74Z" style="fill: rgb(22, 160, 133); transform-origin: 222.885px 68.91px;" id="el82n03s35pja" class="animable"></path><path d="M229.8,73.79a2.05,2.05,0,0,0,.94-.14.61.61,0,0,0,.28-.3,1.14,1.14,0,0,0,.06-.39V64.89c0-.33-.06-.54-.17-.62a2.07,2.07,0,0,0-1.11-.21v-.84h4.27v.84a2.08,2.08,0,0,0-.94.14.7.7,0,0,0-.28.3,1.14,1.14,0,0,0-.06.39v3.4h5.66v-3.4c0-.33-.06-.54-.17-.62a2.07,2.07,0,0,0-1.11-.21v-.84h4.27v.84a2.08,2.08,0,0,0-.94.14.77.77,0,0,0-.28.3,1.14,1.14,0,0,0-.06.39V73c0,.33.05.54.16.62a2.12,2.12,0,0,0,1.11.21v.84h-4.27v-.84a2.14,2.14,0,0,0,1-.14.66.66,0,0,0,.28-.3,1.14,1.14,0,0,0,.06-.39V69.28h-5.66V73c0,.33.06.54.17.62a2.07,2.07,0,0,0,1.11.21v.84H229.8Z" style="fill: rgb(22, 160, 133); transform-origin: 235.62px 68.945px;" id="eli6e6s08er2" class="animable"></path><path d="M242.58,68.93a6.86,6.86,0,0,1,.44-2.57,5.25,5.25,0,0,1,1.18-1.85,5.63,5.63,0,0,1,7.5,0,5.82,5.82,0,0,1,1.63,4.4,6,6,0,0,1-1.5,4.36,5.66,5.66,0,0,1-7.75,0A5.93,5.93,0,0,1,242.58,68.93ZM248,73.79a2.91,2.91,0,0,0,2.24-1A5.45,5.45,0,0,0,251.35,69a6,6,0,0,0-1-3.75,3,3,0,0,0-2.45-1.2,3,3,0,0,0-2.42,1.2,5.66,5.66,0,0,0-1,3.59c0,2.29.63,3.81,1.89,4.54A3,3,0,0,0,248,73.79Z" style="fill: rgb(22, 160, 133); transform-origin: 247.955px 68.9419px;" id="el4ygu6xuk0x3" class="animable"></path><path d="M254.47,73.79a2.16,2.16,0,0,0,1-.14.49.49,0,0,0,.23-.3,1.51,1.51,0,0,0,0-.39V64.89c0-.33-.05-.54-.16-.62a2.12,2.12,0,0,0-1.11-.21v-.84h4.15q3.12,0,4.05,1.74a3.38,3.38,0,0,1,.38,1.65,3.42,3.42,0,0,1-.39,1.68c-.7,1.26-2.11,1.9-4.21,1.9h-1v2.4a4.68,4.68,0,0,0,0,.62.65.65,0,0,0,.31.42,4.13,4.13,0,0,0,1.59.17v.84h-4.92Zm3.83-4.37a3,3,0,0,0,2.16-.7,2.79,2.79,0,0,0,.76-2.13,2.28,2.28,0,0,0-1.45-2.32,3.3,3.3,0,0,0-1.25-.21h-1.07v5.36Z" style="fill: rgb(22, 160, 133); transform-origin: 258.701px 68.93px;" id="elf7mygif4skj" class="animable"></path><path d="M264.11,73.79a2.08,2.08,0,0,0,.95-.14.76.76,0,0,0,.28-.29,1,1,0,0,0,.06-.38V64.89a.71.71,0,0,0-.29-.65,1.92,1.92,0,0,0-1-.18v-.84h8.27l.3,2.76h-1.11l-.2-.86a1.87,1.87,0,0,0-.31-.77,1.32,1.32,0,0,0-.95-.28h-3V68.5h1.47a2.94,2.94,0,0,0,1.05-.11.63.63,0,0,0,.27-.33,2,2,0,0,0,.07-.62h1v2.94h-1c0-.47-.09-.76-.28-.87a2.29,2.29,0,0,0-1.11-.17h-1.47v4.45h3.23a1.19,1.19,0,0,0,1.17-.59l.18-.38.34-.94h1.1l-.29,2.75h-8.73Z" style="fill: rgb(22, 160, 133); transform-origin: 268.62px 68.925px;" id="el1navqjxfx8u" class="animable"></path></g></g><defs>     <filter id="active" height="200%">         <feMorphology in="SourceAlpha" result="DILATED" operator="dilate" radius="2"></feMorphology>                <feFlood flood-color="#32DFEC" flood-opacity="1" result="PINK"></feFlood>        <feComposite in="PINK" in2="DILATED" operator="in" result="OUTLINE"></feComposite>        <feMerge>            <feMergeNode in="OUTLINE"></feMergeNode>            <feMergeNode in="SourceGraphic"></feMergeNode>        </feMerge>    </filter>    <filter id="hover" height="200%">        <feMorphology in="SourceAlpha" result="DILATED" operator="dilate" radius="2"></feMorphology>                <feFlood flood-color="#ff0000" flood-opacity="0.5" result="PINK"></feFlood>        <feComposite in="PINK" in2="DILATED" operator="in" result="OUTLINE"></feComposite>        <feMerge>            <feMergeNode in="OUTLINE"></feMergeNode>            <feMergeNode in="SourceGraphic"></feMergeNode>        </feMerge>            <feColorMatrix type="matrix" values="0   0   0   0   0                0   1   0   0   0                0   0   0   0   0                0   0   0   1   0 "></feColorMatrix>    </filter></defs></svg>