<svg xmlns="http://www.w3.org/2000/svg" viewBox="0 0 500 500"><g id="freepik--background-simple--inject-100"><path d="M186.76,455.23c105.5,19.45,210.48-68.29,258.77-152.41,32.09-55.9,44.87-121.51,26.15-174.9C458,88.8,423.44,50.9,372.12,49.23c-57.2-1.85-103.24,54.14-162,53S82,125.19,48.37,168.84,7.88,292.1,36.48,353.86c16.31,35.21,45.18,65.37,82.71,83.68,20.63,10,42.92,12.91,66.28,17.44Z" style="fill:#92E3A9"></path><path d="M186.76,455.23c105.5,19.45,210.48-68.29,258.77-152.41,32.09-55.9,44.87-121.51,26.15-174.9C458,88.8,423.44,50.9,372.12,49.23c-57.2-1.85-103.24,54.14-162,53S82,125.19,48.37,168.84,7.88,292.1,36.48,353.86c16.31,35.21,45.18,65.37,82.71,83.68,20.63,10,42.92,12.91,66.28,17.44Z" style="fill:#fff;opacity:0.8"></path></g><g id="freepik--Text--inject-100"><polygon points="280.69 272.5 262.33 272.5 262.33 105.48 280.43 105.48 280.43 108.48 265.33 108.48 265.33 269.5 280.69 269.5 280.69 272.5" style="fill:#263238"></polygon><polygon points="464.67 272.5 446.31 272.5 446.31 269.5 461.67 269.5 461.67 108.48 446.57 108.48 446.57 105.48 464.67 105.48 464.67 272.5" style="fill:#263238"></polygon><path d="M301.25,119.2c7.44,0,10.37,3.54,10.37,10.57V132c0,5-1.43,8.18-5.59,9.48,4.63,1.29,6.41,5,6.41,10.23v4c0,7.16-3.48,11.18-10.91,11.18h-11V119.2ZM300,139.45c4.23,0,6.41-1.36,6.41-6.34v-2.8c0-4.22-1.43-6.27-5.25-6.27h-5.25v15.41Zm1.57,22.64c3.88,0,5.66-2.05,5.66-6.48v-4.23c0-5.32-2.12-7.09-6.69-7.09h-4.63v17.8Z" style="fill:#263238"></path><path d="M327.92,119.2c7.5,0,10.64,3.82,10.64,10.91V134c0,5.25-1.85,8.52-5.94,9.81,4.37,1.3,6,4.85,6,10v7.43a11.92,11.92,0,0,0,1,5.73h-5.39c-.61-1.36-.88-2.59-.88-5.79v-7.51c0-5.38-2.53-7.09-7-7.09H322.6v20.39h-5.32V119.2Zm-1.37,22.5c4.23,0,6.76-1.36,6.76-6.55v-4.56c0-4.3-1.57-6.55-5.53-6.55H322.6V141.7Z" style="fill:#263238"></path><path d="M361.13,140.34v4.77H349.47v17h14.32v4.84H344.15V119.2h19.64V124H349.47v16.3Z" style="fill:#263238"></path><path d="M374.09,157.32l-1.84,9.61h-4.91l9.13-47.73h7.71l9.14,47.73H388l-1.84-9.61Zm.68-4.57h10.64L380,125.2Z" style="fill:#263238"></path><path d="M418.14,130.65V132h-5v-1.57c0-4.29-1.64-6.82-5.46-6.82s-5.46,2.53-5.46,6.75c0,10.71,16,11.73,16,25.17,0,7.22-3.48,11.93-10.77,11.93s-10.71-4.71-10.71-11.93v-2.73h5v3c0,4.29,1.77,6.82,5.59,6.82s5.59-2.53,5.59-6.82c0-10.64-16-11.66-16-25.1,0-7.36,3.41-11.93,10.57-11.93S418.14,123.43,418.14,130.65Z" style="fill:#263238"></path><path d="M429.81,166.93V124H421V119.2h22.91V124h-8.8v42.89Z" style="fill:#263238"></path><path d="M310.19,185.51v4.3h-5.05v-4.57c0-4.3-1.7-6.89-5.59-6.89s-5.59,2.59-5.59,6.89v25.23c0,4.29,1.77,6.89,5.59,6.89s5.59-2.6,5.59-6.89v-6.21h5.05v5.94c0,7.22-3.41,12-10.78,12s-10.7-4.78-10.7-12V185.51c0-7.23,3.41-12,10.7-12S310.19,178.28,310.19,185.51Z" style="fill:#263238"></path><path d="M320.42,212.1l-1.84,9.62h-4.91L322.8,174h7.71l9.14,47.73h-5.32l-1.84-9.62Zm.68-4.56h10.64L326.35,180Z" style="fill:#263238"></path><path d="M348.51,221.72h-4.77V174h6.75l11.05,34.5V174h4.71v47.73h-5.53l-12.21-38.6Z" style="fill:#263238"></path><path d="M392.77,185.51v4.3h-5v-4.57c0-4.3-1.71-6.89-5.59-6.89s-5.6,2.59-5.6,6.89v25.23c0,4.29,1.78,6.89,5.6,6.89s5.59-2.6,5.59-6.89v-6.21h5v5.94c0,7.22-3.41,12-10.77,12s-10.71-4.78-10.71-12V185.51c0-7.23,3.41-12,10.71-12S392.77,178.28,392.77,185.51Z" style="fill:#263238"></path><path d="M414.6,195.13v4.77H402.94v17h14.32v4.84H397.62V174h19.64v4.84H402.94v16.3Z" style="fill:#263238"></path><path d="M432.8,174c7.51,0,10.64,3.81,10.64,10.91v3.88c0,5.25-1.84,8.53-5.93,9.82,4.36,1.3,6,4.84,6,10V216a11.92,11.92,0,0,0,1,5.73h-5.39c-.62-1.36-.89-2.59-.89-5.8v-7.5c0-5.38-2.52-7.09-6.95-7.09h-3.75v20.39h-5.32V174Zm-1.36,22.5c4.23,0,6.75-1.36,6.75-6.55v-4.57c0-4.29-1.57-6.54-5.52-6.54h-5.18v17.66Z" style="fill:#263238"></path><path d="M293.75,253.21l-1.14,6h-3l5.65-29.53H300l5.65,29.53h-3.29l-1.14-6Zm.42-2.82h6.58l-3.33-17Z" style="fill:#263238"></path><path d="M316.07,259.16h-4.52l-4.05-29.53h3.21l3.46,25.14,3.29-25.1h3.25L324,254.82l3.33-25.19h2.87l-4,29.53h-4.34l-2.83-20Z" style="fill:#263238"></path><path d="M335.52,253.21l-1.14,6h-3L337,229.63h4.76l5.66,29.53h-3.29l-1.14-6Zm.42-2.82h6.58l-3.33-17Z" style="fill:#263238"></path><path d="M356.58,229.63c4.64,0,6.58,2.36,6.58,6.75v2.4c0,3.25-1.14,5.28-3.67,6.08,2.7.8,3.71,3,3.71,6.16v4.6a7.35,7.35,0,0,0,.59,3.54h-3.33a7.69,7.69,0,0,1-.55-3.58v-4.64c0-3.34-1.56-4.39-4.3-4.39h-2.32v12.61H350V229.63Zm-.85,13.92c2.62,0,4.18-.84,4.18-4.05v-2.83c0-2.65-1-4-3.42-4h-3.2v10.93Z" style="fill:#263238"></path><path d="M377.13,242.71v2.95h-7.22v10.51h8.86v3H366.62V229.63h12.15v3h-8.86v10.09Z" style="fill:#263238"></path><path d="M384.72,259.16h-3V229.63H386L392.78,251V229.63h2.91v29.53h-3.41l-7.56-23.88Z" style="fill:#263238"></path><path d="M409.58,242.71v2.95h-7.22v10.51h8.86v3H399.07V229.63h12.15v3h-8.86v10.09Z" style="fill:#263238"></path><path d="M427.05,236.72v.8h-3.13v-1c0-2.66-1-4.22-3.37-4.22s-3.38,1.56-3.38,4.18c0,6.62,9.92,7.25,9.92,15.56,0,4.48-2.15,7.39-6.67,7.39s-6.62-2.91-6.62-7.39v-1.68h3.08v1.85c0,2.66,1.09,4.22,3.46,4.22s3.46-1.56,3.46-4.22c0-6.58-9.88-7.21-9.88-15.52,0-4.56,2.11-7.39,6.54-7.39S427.05,232.24,427.05,236.72Z" style="fill:#263238"></path><path d="M442.74,236.72v.8h-3.12v-1c0-2.66-1-4.22-3.37-4.22s-3.38,1.56-3.38,4.18c0,6.62,9.92,7.25,9.92,15.56,0,4.48-2.16,7.39-6.67,7.39s-6.62-2.91-6.62-7.39v-1.68h3.08v1.85c0,2.66,1.09,4.22,3.45,4.22s3.46-1.56,3.46-4.22c0-6.58-9.87-7.21-9.87-15.52,0-4.56,2.11-7.39,6.54-7.39S442.74,232.24,442.74,236.72Z" style="fill:#263238"></path></g><g id="freepik--Plants--inject-100"><path d="M263.42,379.92a22,22,0,0,0-7.6,3.45,50.55,50.55,0,0,0-5.64,4.39c-.43.39-.07,1.16.6,1.27.91.15,2.14.33,3.56.52.7.1,1.48.17,2.24.29l2.35.33c1.61.2,3.27.35,4.84.42a23.47,23.47,0,0,0,4.15,0,30.29,30.29,0,0,0,8-2.73c2.66-1.22,5.14-2.56,6.58-3.38h0c-1.6,0-3.16,0-4.73.09s-3.17.2-4.72.32-3.09.26-4.61.41-3.09.4-4.6.62c1.45-.33,2.92-.66,4.4-1s2.93-.53,4.42-.78,3-.47,4.52-.68c.76-.11,1.54-.22,2.29-.31l2.28-.22-1.76-.62c-.67-.2-1.41-.4-2.18-.61-1.56-.42-3.27-.84-5-1.2-.85-.19-1.74-.31-2.61-.42s-1.72-.19-2.53-.24A20.35,20.35,0,0,0,263.42,379.92Z" style="fill:#92E3A9"></path><path d="M278.75,379.65a170.34,170.34,0,0,0-18.6-13.32,170.65,170.65,0,0,1,19.23,12.18c-.63-.93-1.48-2.14-2.49-3.51-.49-.69-1.06-1.38-1.66-2.08s-1.22-1.43-1.87-2.16a40.37,40.37,0,0,0-8.24-7.36,18.9,18.9,0,0,0-2.2-1.22c-.81-.37-1.67-.72-2.57-1.07-1.78-.68-3.69-1.3-5.54-1.85-3.78-1-7.37-1.6-9.46-1.94-.77-.13-1.11.54-.56,1.09,1.5,1.5,4.05,4,6.86,6.45,1.36,1.3,2.79,2.59,4.19,3.74s2.82,2.12,4.06,3c2.5,1.62,6.27,3,9.79,4.54.89.36,1.77.7,2.64,1l1.27.47,1.19.49c1.54.63,2.91,1.16,3.93,1.55Z" style="fill:#92E3A9"></path><path d="M280.07,362.43c.51,1.62,1,3.2,1.46,4.8s.86,3.27,1.25,4.87.77,3.21,1.13,4.79.62,3.24.9,4.83v0a48.51,48.51,0,0,0,2-7.3,22.21,22.21,0,0,0,0-8.86A21.37,21.37,0,0,0,285,361c-.87-1.61-1.92-3.31-3-5-.55-.84-1.12-1.66-1.69-2.45s-1.16-1.5-1.71-2.2c-1.11-1.37-2.13-2.57-2.9-3.46-.57-.65-1.6-.74-1.7-.14a70.62,70.62,0,0,0-.75,7.4,27.43,27.43,0,0,0,.74,8.67,26.86,26.86,0,0,0,1.79,4.28c.39.77.82,1.57,1.26,2.36s.92,1.59,1.37,2.42c.9,1.64,1.82,3.23,2.66,4.64.43.7.83,1.36,1.19,2l.94,1.67-.23-2.35c-.09-.78-.2-1.53-.3-2.31-.22-1.55-.46-3.1-.71-4.68s-.53-3.17-.83-4.75S280.43,364,280.07,362.43Z" style="fill:#92E3A9"></path><path d="M278.64,391.39a21.43,21.43,0,0,0-7.87,2.44,51.44,51.44,0,0,0-6.13,3.74c-.48.34-.22,1.13.43,1.29.44.12,1,.24,1.53.4l1.84.52c1.33.36,2.84.74,4.41,1.1s3.08.77,4.59,1a28.32,28.32,0,0,0,4.11.46,30.88,30.88,0,0,0,8.24-1.56c2.85-.85,5.45-1.77,7-2.36h0a114.06,114.06,0,0,0-18.55-1.19c1.45-.13,2.92-.25,4.41-.35s3-.2,4.5-.21,3,0,4.53,0,3.11,0,4.61.14l-.77-.42-.9-.43L292.6,395l-2.28-1a25.51,25.51,0,0,0-2.46-.91C284.48,392.06,281.11,391.22,278.64,391.39Z" style="fill:#92E3A9"></path><path d="M293.13,360.82a72,72,0,0,0-1.58,7.23,27.89,27.89,0,0,0-.35,8.81,57.8,57.8,0,0,0,3.2,9.61c.37.85.7,1.72,1,2.57s.66,1.65,1,2.43l.88,2.13q.19.5.39.93l.31.85c.12-1.59.12-3.1.15-4.68s0-3.17,0-4.78-.12-3.19-.22-4.8-.22-3.22-.36-4.86a127.87,127.87,0,0,1,2,19.88v0a44.66,44.66,0,0,0,3-6.92,22.57,22.57,0,0,0,1.31-8.84,19.86,19.86,0,0,0-1.24-4.74,55,55,0,0,0-2.37-5.48c-.94-1.78-1.95-3.53-2.89-5.09L296,362.87c-.42-.67-.83-1.22-1.17-1.71C294.33,360.45,293.29,360.24,293.13,360.82Z" style="fill:#92E3A9"></path><path d="M291.89,404.73a14.94,14.94,0,0,0-4,.2,25.38,25.38,0,0,0-4.15,1.08,48.18,48.18,0,0,0-6.56,2.82.74.74,0,0,0,.2,1.32c1.68.64,4.27,1.87,7.22,3,1.43.59,2.87,1.2,4.3,1.68.7.25,1.42.45,2.07.64a14.43,14.43,0,0,0,1.84.45,20.63,20.63,0,0,0,3.95.18c.72,0,1.46-.08,2.21-.15s1.46-.12,2.19-.2c2.91-.33,5.69-.8,7.33-1.1h0c-1.53-.5-3-1-4.51-1.42s-3.05-.79-4.54-1.14c-2.95-.74-6-1.23-8.95-1.66,1.44.09,2.9.2,4.39.33.73.07,1.5.13,2.23.23l2.19.3c1.48.22,3,.46,4.48.73s3,.62,4.48,1a57.18,57.18,0,0,0-7.66-5.08C297.51,406.27,294.34,404.93,291.89,404.73Z" style="fill:#92E3A9"></path><path d="M310.8,376.67c-.65,1.52-1.71,4.12-2.6,7-.43,1.41-.85,2.93-1.16,4.42a19.32,19.32,0,0,0-.47,4.28,60.14,60.14,0,0,0,1.66,10c.73,3.72,1.59,7.21,2,9.43.35-1.51.74-3.09,1-4.62s.53-3.11.77-4.7l.34-2.41c.11-.81.17-1.59.25-2.4.16-1.61.29-3.24.4-4.9,0,3.48,0,6.83-.24,10.21-.12,1.68-.23,3.31-.42,4.95s-.44,3.28-.69,4.88l0,0a44.61,44.61,0,0,0,4.18-6.28c.37-.67.72-1.38,1-2.09s.59-1.42.83-2.15a16.1,16.1,0,0,0,.89-4.29,18.37,18.37,0,0,0,0-2.32,25.65,25.65,0,0,0-.41-2.65,57.25,57.25,0,0,0-1.52-5.87,77.33,77.33,0,0,0-4.13-9.87C312.05,376.49,311,376.11,310.8,376.67Z" style="fill:#92E3A9"></path><path d="M302.59,419.9a20.89,20.89,0,0,0-8.21-.11,39.21,39.21,0,0,0-3.93.83c-1.2.31-2.22.63-3,.88a.71.71,0,0,0,0,1.29c.76.43,1.65,1.08,2.77,1.77l1.79,1.11,1.86,1.2a45,45,0,0,0,7.54,4.1,32.22,32.22,0,0,0,8.2,1.4c2.91.23,5.72.32,7.39.34h0c-1.4-.79-2.73-1.56-4.15-2.25s-2.82-1.37-4.2-2-2.85-1.18-4.24-1.73-2.79-1.05-4.24-1.49c.71.16,1.44.33,2.14.51l2.1.59c1.4.41,2.83.85,4.26,1.32s2.8,1,4.22,1.57,2.85,1.15,4.22,1.8a40.27,40.27,0,0,0-2.8-3c-.56-.56-1.16-1.14-1.77-1.73s-1.33-1.13-2-1.68-1.37-1.08-2.05-1.58a23.22,23.22,0,0,0-2.1-1.35A18.62,18.62,0,0,0,302.59,419.9Z" style="fill:#92E3A9"></path><path d="M326.09,395.58c-.45.69-1,1.64-1.69,2.75s-1.34,2.37-2,3.73a28.76,28.76,0,0,0-3.09,8.31,27.51,27.51,0,0,0-.32,4.71c0,.89,0,1.78,0,2.73s0,1.89,0,2.83.06,1.86.09,2.77,0,1.79,0,2.62c0,1.66.07,3.11,0,4.24.68-1.43,1.27-2.86,1.84-4.33s1.15-3,1.69-4.5,1-3.06,1.45-4.63l.68-2.38c.22-.8.4-1.58.6-2.39-.24,1.7-.59,3.41-.95,5.09s-.7,3.31-1.15,4.95-.91,3.24-1.38,4.81-1.07,3.13-1.61,4.65h0a44.69,44.69,0,0,0,5.34-5.37,21.91,21.91,0,0,0,4.35-7.89,33.49,33.49,0,0,0,0-11.11c-.15-1-.29-2.1-.49-3.1s-.42-2-.64-2.89c-.45-1.82-.84-3.5-1.24-4.67C327.36,395.63,326.42,395.06,326.09,395.58Z" style="fill:#92E3A9"></path><path d="M310.11,436.7a20.06,20.06,0,0,0-8-1.67,44.68,44.68,0,0,0-7.09.38.71.71,0,0,0-.32,1.24l1.09,1,1.29,1.24c.94.89,2,1.88,3.1,2.92.55.52,1.11,1,1.69,1.54s1.09,1,1.65,1.5a27.45,27.45,0,0,0,3.19,2.42,19.83,19.83,0,0,0,3.57,1.64c1.33.5,2.75.95,4.17,1.36s2.81.78,4.06,1.09,2.32.56,3.13.75h0a85.65,85.65,0,0,0-15-10.67,87.93,87.93,0,0,1,15.42,9.05c-.55-1-1.26-2.19-2.12-3.52s-1.88-2.75-3-4.09A25.07,25.07,0,0,0,310.11,436.7Z" style="fill:#92E3A9"></path><path d="M337.88,417.36c-1.14,1.21-3.05,3.3-4.9,5.68a30.1,30.1,0,0,0-4.65,7.59,65.93,65.93,0,0,0-2.24,10c-.3,1.84-.7,3.68-1,5.3s-.61,3.06-.83,4.17l-.18-1.25a80.81,80.81,0,0,0-3.19-13.46l-.52-1.65c-.19-.54-.4-1.08-.6-1.62l-1.21-3.24-1.37-3.18c-.23-.52-.44-1.06-.69-1.58l-.76-1.55a108.44,108.44,0,0,0-14.93-23.1A134.68,134.68,0,0,0,281,380.5l-.12.16a132.93,132.93,0,0,1,19.2,19.41,107.72,107.72,0,0,1,14.27,23.14l.7,1.55c.23.52.43,1.05.64,1.57l1.26,3.16,1.1,3.22c.18.53.37,1.06.54,1.6l.48,1.64a112.41,112.41,0,0,1,3.1,13.2l.3,1.67.24,1.68c.17,1.12.33,2.24.43,3.37s.26,2.25.33,3.38l.13,1.7.08,1.7a82.83,82.83,0,0,1-.37,13.63l.2,0a61.83,61.83,0,0,0,1.56-13.7c0-.57,0-1.15,0-1.73l0-1.72c0-1.16-.1-2.31-.17-3.46l-.1-1.4-.15-1.4c-.11-.93-.19-1.86-.32-2.79a99,99,0,0,0,9.76-16.62,98.78,98.78,0,0,1-8.9,18.12h0c.74-.4,1.72-1,2.82-1.67a36.6,36.6,0,0,0,3.47-2.5,27,27,0,0,0,3.39-3.21,16,16,0,0,0,2.47-3.66,20.67,20.67,0,0,0,1.45-4.84c.18-.94.36-1.95.48-3s.19-2.08.25-3.14a55.43,55.43,0,0,0,.05-6.16c0-.95-.06-1.86-.13-2.68s-.15-1.56-.21-2.18C339.12,417.67,338.3,416.91,337.88,417.36Z" style="fill:#92E3A9"></path><path d="M314.09,454.58a14.75,14.75,0,0,0-3.41-1.95,28.49,28.49,0,0,0-4.08-1.3,43.91,43.91,0,0,0-7-1,.7.7,0,0,0-.56,1.14c.47.67,1.12,1.58,1.88,2.62.37.53.75,1.09,1.16,1.66l.63.89.63.9a47.24,47.24,0,0,0,5.24,6.59,21.24,21.24,0,0,0,3.12,2.31c1.18.75,2.49,1.49,3.78,2.19,2.57,1.38,5.1,2.63,6.59,3.36h0a76,76,0,0,0-12.3-13.49,79.3,79.3,0,0,1,13.11,12,46.47,46.47,0,0,0-3.36-8.5A24.27,24.27,0,0,0,314.09,454.58Z" style="fill:#92E3A9"></path><path d="M345.23,441.28c-1.34,1-3.65,2.62-6,4.59A45.37,45.37,0,0,0,335.9,449a20.78,20.78,0,0,0-2.74,3.37,72.38,72.38,0,0,0-4.27,9.38c-1.41,3.51-2.86,6.88-3.8,8.91a91.26,91.26,0,0,0,13.12-14.27,89.54,89.54,0,0,1-12.6,15.92h0a38.68,38.68,0,0,0,7.09-2.69,27.54,27.54,0,0,0,4-2.43,16.61,16.61,0,0,0,3.2-3.11,32.81,32.81,0,0,0,4.42-10.39c.14-.52.27-1,.41-1.55l.33-1.54c.22-1,.41-2,.58-3,.3-1.89.5-3.59.64-4.87C346.41,441.83,345.72,440.92,345.23,441.28Z" style="fill:#92E3A9"></path><path d="M452.19,340.12c3.37-.17,7.38.81,11.07,2.1a75,75,0,0,1,8.88,3.83c.71.36.39,1.5-.49,1.86-1.2.51-2.87,1.18-4.72,1.9s-3.94,1.49-6,2.24c-4.22,1.47-8.55,2.87-11.82,3.13s-7.32-.39-11.17-1.27-7.39-1.94-9.5-2.62l0,0a199.27,199.27,0,0,1,24.79-3.35c-4.05-.05-8,.08-12.08.23q-3,.17-6.05.39l-3.06.24-3,.32,2.13-1.27,2.65-1.41c.95-.49,1.94-1,3-1.5s2.14-1,3.22-1.42,2.19-.89,3.28-1.29,2.2-.73,3.25-1A26.23,26.23,0,0,1,452.19,340.12Z" style="fill:#92E3A9"></path><path d="M432,344c3.11-4,6.48-7.75,9.88-11.49s7-7.32,10.64-10.85c-3.81,3.3-7.51,6.7-11.17,10.16s-7.15,7.09-10.49,10.87c.29-.69.61-1.49,1-2.37s.83-1.82,1.31-2.82,1-2.07,1.55-3.17,1.19-2.17,1.83-3.29a55.64,55.64,0,0,1,8.56-11.66c6-5.75,18.17-11.69,23.16-14.29.93-.47,1.66.21,1.19,1.11-2.46,5-9.24,16.48-15,22-2.87,2.79-7.34,5.82-11.59,8.67l-6.1,4c-1.89,1.19-3.5,2.27-4.71,3.07Z" style="fill:#92E3A9"></path><path d="M425.4,322.21a210.41,210.41,0,0,0-.69,26.16l0,0a66.83,66.83,0,0,1-4.54-9,30.55,30.55,0,0,1-2.58-11.46c.12-3.52,1.59-8.62,3.5-13.39.94-2.41,2-4.66,3-6.73s1.88-3.76,2.57-5.07c.51-1,1.78-1.31,2.1-.58a79.51,79.51,0,0,1,3.36,9.06c1.1,3.7,2,7.81,1.71,11.23a36,36,0,0,1-1.1,5.92c-.29,1.1-.62,2.22-1,3.38s-.69,2.34-1.07,3.51l-2.18,6.7-1,2.89c-.29.9-.55,1.71-.77,2.42l-.34-3.11-.25-3.09q-.24-3.1-.43-6.27C425.52,330.68,425.37,326.39,425.4,322.21Z" style="fill:#92E3A9"></path><path d="M435.32,359.33a28.91,28.91,0,0,1,11,1,66.88,66.88,0,0,1,9,3.12c.72.3.59,1.42-.22,1.83l-1.9,1-2.3,1.22-5.46,2.78c-3.89,1.88-7.85,3.87-11,4.52s-7.14.58-11,.19-7.47-1-9.62-1.4h0c3.86-1.43,7.91-2.59,11.79-3.73,2-.56,4-1,5.94-1.52s3.91-.94,5.92-1.31c-2,.21-3.89.48-5.83.78s-3.9.61-5.87,1c-3.86.74-7.8,1.57-11.71,2.54,1.08-.94,2.63-2.07,4.31-3.32.85-.62,1.75-1.27,2.67-1.91s2-1.24,3-1.84A36.77,36.77,0,0,1,435.32,359.33Z" style="fill:#92E3A9"></path><path d="M408.09,323.52a90.8,90.8,0,0,1,4.12,8.92c1.48,3.72,2.77,7.8,2.9,11.29s-.64,8.46-1.4,13.4c-.22,1.21-.44,2.42-.65,3.6s-.38,2.35-.56,3.45c-.36,2.19-.77,4.08-1,5.57-1-4.08-1.86-8.21-2.69-12.44q-.54-3.12-1-6.32c-.34-2.13-.66-4.28-.89-6.41.05,2.23.23,4.51.4,6.75s.33,4.43.59,6.66c.55,4.46,1.05,8.76,1.87,13.13l0,0a67.53,67.53,0,0,1-5.64-8.43c-2-3.54-3.7-7.6-4.11-11.22s.37-9,1.73-14.08c.33-1.28.65-2.59,1-3.81s.78-2.4,1.16-3.52l1.11-3.13c.36-1,.71-1.78,1-2.5C406.45,323.35,407.72,322.81,408.09,323.52Z" style="fill:#92E3A9"></path><path d="M421.58,380.82a26.36,26.36,0,0,1,10.82-.45,64.59,64.59,0,0,1,9.2,1.95c.73.21.76,1.36,0,1.89-1,.73-2.35,1.63-3.82,2.77s-3.2,2.35-5,3.56a58.94,58.94,0,0,1-10.3,6.25c-6.09,2.43-16.38,1.51-20.67,1h0l11.4-5,2.85-1.22,1.42-.62,1.43-.54q2.83-1.08,5.64-2.09c-3.72,1-7.51,2-11.29,3.32l-11.36,3.81c2-2,5.46-5.26,9.09-8.26S418.49,381.72,421.58,380.82Z" style="fill:#92E3A9"></path><path d="M390.13,348.24a93.34,93.34,0,0,1,5.25,8.47c1.88,3.5,3.79,7.48,4.4,11a72.25,72.25,0,0,1,.36,13.61c-.11,5-.51,9.8-.77,12.8L395.45,382c-1.35-4-2.45-8.2-3.59-12.44.42,2.26.84,4.49,1.28,6.7l.33,1.65.38,1.61.76,3.22,3.1,12.85,0,0c-3-3.37-9.84-11.7-11.57-18.51-1-3.31-.77-8.79-.31-14.1.32-2.64.73-5.26,1.14-7.61s.93-4.38,1.29-5.92C388.51,348.29,389.67,347.57,390.13,348.24Z" style="fill:#92E3A9"></path><path d="M410,404.64c6.09-2.52,16.08-1.43,20.23-.8.76.11.85,1.38.14,2.08-3.84,3.8-13.11,12.75-19.16,15.31S394.9,423,390.6,422.49h0q11.31-5.16,22.66-10.16-11.31,3.84-22.59,7.84C394.7,416,404.05,407.09,410,404.64Z" style="fill:#92E3A9"></path><path d="M376.19,374.6c2.91,3.25,9.66,11.29,11.46,18.07s.9,20.15.44,26.15Q384,406.76,380,394.64q3.15,12.87,6.44,25.68l0,0c-3-3.35-10-11.61-11.79-18.39s-.74-20.4-.1-26.15C374.64,374.71,375.66,374,376.19,374.6Z" style="fill:#92E3A9"></path><path d="M398.86,429.27c6.06-2.59,16.05-1.63,20.21-1.06.76.1.86,1.38.16,2.09-3.8,3.89-13,13-19,15.59s-16.31,1.89-20.61,1.44h0q11.28-5.25,22.56-10.39-11.26,4-22.51,8.07C383.65,440.84,392.91,431.8,398.86,429.27Z" style="fill:#92E3A9"></path><path d="M364.71,399.58c2.94,3.21,9.8,11.17,11.67,17.93s1.1,20,.69,26.08l.65-1.54q3.57-8.44,7.41-16.74l7.73-16.58,7.82-16.53,4-8.23c1.39-2.71,2.75-5.45,4.18-8.14a185.46,185.46,0,0,1,20.49-30.05l.2.17A183.79,183.79,0,0,0,410,376.5c-1.37,2.71-2.66,5.46-4,8.19l-3.8,8.31-7.46,16.7-7.29,16.8q-3.62,8.42-7.39,16.74l-3.8,8.31-3.85,8.29c-2.58,5.52-5.19,11-7.91,16.48l-.23-.11c2.06-5.79,4.26-11.51,6.52-17.19,1.12-2.85,2.29-5.68,3.44-8.51l2.86-6.87q-4.17-12-8.28-24.08,3.28,12.84,6.67,25.63l0,0c-3-3.32-10.05-11.53-11.94-18.3s-1-20.38-.41-26.11C363.16,399.71,364.16,399,364.71,399.58Z" style="fill:#92E3A9"></path><path d="M387.91,454.05c6-2.64,16-1.76,20.18-1.24.77.1.88,1.38.19,2.1-3.77,3.93-12.87,13.12-18.88,15.78s-16.28,2-20.58,1.59h0q11.22-5.34,22.46-10.57l-22.42,8.24C372.81,465.76,382,456.63,387.91,454.05Z" style="fill:#92E3A9"></path><path d="M353.54,424.61c3,3.19,9.89,11.1,11.82,17.85s1.26,20.16.89,26.18l-8.48-24.08q3.41,12.82,6.87,25.61l0,0c-3.05-3.3-10.12-11.47-12.07-18.23s-1.12-20.39-.63-26.11C352,424.75,353,424,353.54,424.61Z" style="fill:#92E3A9"></path></g><g id="freepik--Character--inject-100"><path d="M87.26,329.89c2.78-10.8,8-49.07,8-49.07s2.78,26.54,4.94,34.57,3.09,14.19,5.25,27.46a91.56,91.56,0,0,1-4.32,45.37c-4.63,13.27-12.66,35.18-16.36,52.46a179.64,179.64,0,0,0-3.4,35.15H265c-.4-3.5-4.07-34.05-10.76-56.13-7.09-23.46-15.43-39.51-16-46.29s-8.34-22.53-4.63-37,4-21.29,4-21.29,12.65,39.5,13,49.38,3.09,31.78,8.95,45.36,17.28,52.77,18.52,59.25c.67,3.55,1,5.61,1.11,6.76h23.22c-.3-7.94-2-51-3.66-66.93-1.85-17.6-8.33-46.3-10.8-52.78s-4.63-14.81-4.63-14.81-11.11-60.49-11.11-69.13,2.47-27.46-6.17-45.05-34.56-19.44-46.29-22.84-19.13-6.17-22.22-13-.62-20.37-.62-20.37-10.18,3.7-26.23-10.18S153,144.11,153,144.11s-4-3.08-3.7,3.4c0,0,.31,21.6-2.78,33S131.7,195,120,198.43s-23.82,5.84-35.33,10.19c-17.86,6.75-28.7,21.83-27.93,41C57,257.52,53,272.8,52.39,274S43.75,311.68,40.66,325s-5.56,21-2.78,28.4S53,362,68.43,357.67,84.48,340.69,87.26,329.89Z" style="fill:#fff;stroke:#263238;stroke-linecap:round;stroke-linejoin:round"></path><polygon points="95.28 280.82 93.41 268.3 92.22 302.43 95.28 280.82" style="fill:#263238;stroke:#263238;stroke-linecap:round;stroke-linejoin:round"></polygon><path d="M237.55,315.08a114.38,114.38,0,0,0,1.65-17.21V285.64s2.45,12.93,4.55,26.22a220.08,220.08,0,0,1,2.09,29Z" style="fill:#263238;stroke:#263238;stroke-linecap:round;stroke-linejoin:round"></path><path d="M150,150.31s8,34.93,46.76,39.28c-2.08-7.13,0-18.63,0-18.63s-10.18,3.7-26.23-10.18c-7-6-11.18-9.94-13.74-12.47Z" style="fill:#263238;stroke:#263238;stroke-linecap:round;stroke-linejoin:round"></path><path d="M212.55,208.37s-16.1,3.71-26,4.95" style="fill:none;stroke:#263238;stroke-linecap:round;stroke-linejoin:round"></path><path d="M132.5,207.55s12.38,4.12,22.69,4.53" style="fill:none;stroke:#263238;stroke-linecap:round;stroke-linejoin:round"></path><path d="M110.4,323.72s10.8,8,33.33-2.47c0,0-19.87,15.65-33.33,2.47" style="fill:#263238;stroke:#263238;stroke-linecap:round;stroke-linejoin:round"></path><path d="M225.36,96s-.48,10.13-2.41,15.43-3.38,16.4-2.9,21.23,1.93,13.5-2.89,21.7c-3.92,6.67-10.09,12.32-15.8,17.45-2.05,1.85-4.34,4.35-6.84,5.63-15.73,8-26.75-7.46-37.65-15.85-6.27-4.82-9.69-11.68-11.53-19a56.24,56.24,0,0,0-2-6.52s-9.17,4.34-11.58-10.61,8.2-35.21,28.46-46.78S214.75,69.51,225.36,96Z" style="fill:#fff;stroke:#263238;stroke-linecap:round;stroke-linejoin:round"></path><path d="M184.49,110.8s-8.94-5-21,1.84" style="fill:none;stroke:#263238;stroke-linecap:round;stroke-linejoin:round;stroke-width:3px"></path><path d="M201.3,111.07s8.93-5.78,15.5,1.05" style="fill:none;stroke:#263238;stroke-linecap:round;stroke-linejoin:round;stroke-width:3px"></path><path d="M201,112.91s-3.68,8.4-3.68,11,1,19.44.52,20.75-3.15,2.63-7.62,2.1-5.77-3.15-5.77-3.15" style="fill:none;stroke:#263238;stroke-linecap:round;stroke-linejoin:round"></path><path d="M179,153.36s6,2.63,10.77,2.63S200,153.1,200,153.1" style="fill:none;stroke:#263238;stroke-linecap:round;stroke-linejoin:round"></path><path d="M202.61,124.47s6.83,3.41,12.87.26l1.84,1s-2.92,3.83-8.93,2.89A8,8,0,0,1,202.61,124.47Z" style="fill:#263238;stroke:#263238;stroke-linecap:round;stroke-linejoin:round"></path><path d="M164.72,124.67s9.52,3.21,15.56.06l1.41,2.41a22,22,0,0,1-8.5,1.53C169,128.41,164.72,124.67,164.72,124.67Z" style="fill:#263238;stroke:#263238;stroke-linecap:round;stroke-linejoin:round"></path><path d="M133.72,132.7c-.33,2.65.68-19.09,28.18-34.2,28.2-15.49,63.94.43,63.94.43s7.24-12.05-1-29.9-34.73-29.42-59.33-29.42S136.13,55.53,127,61.31s-28.46,21.23-24.6,27.5S113,101.35,113,101.35A69.54,69.54,0,0,0,133.72,132.7Z" style="fill:#92E3A9"></path><g style="opacity:0.35000000000000003"><path d="M129.75,85.86a3.14,3.14,0,0,0-.75-4.25,3,3,0,1,0-3.49,5A3.14,3.14,0,0,0,129.75,85.86Z" style="fill:#fff"></path><path d="M130.9,79.23a3,3,0,0,0,4-4.59,3,3,0,1,0-4,4.59Z" style="fill:#fff"></path><path d="M124.71,117.71a3.16,3.16,0,0,0,3-5.56,3.16,3.16,0,1,0-3,5.56Z" style="fill:#fff"></path><path d="M122.63,65.91A3.23,3.23,0,0,0,123,64c-1.39,1-2.86,2.07-4.36,3.24A3.15,3.15,0,0,0,122.63,65.91Z" style="fill:#fff"></path><path d="M134.85,101.77A3.16,3.16,0,0,0,139,97a3.16,3.16,0,0,0-4.14,4.77Z" style="fill:#fff"></path><path d="M110.37,84.23a3.16,3.16,0,0,0,2.41-5.83,3.15,3.15,0,0,0-2.41,5.83Z" style="fill:#fff"></path><path d="M119.53,97.21a3,3,0,1,0-2.45,5.57,3,3,0,0,0,2.45-5.57Z" style="fill:#fff"></path><path d="M114.1,75.53a3.15,3.15,0,0,0,2.8-5.65,3,3,0,0,0-1.15-.33c-1.14,1-2.27,1.92-3.37,2.91A3,3,0,0,0,114.1,75.53Z" style="fill:#fff"></path><path d="M125.05,93.32a3.13,3.13,0,0,0-1.18-4.15,3,3,0,1,0-3,5.32A3.14,3.14,0,0,0,125.05,93.32Z" style="fill:#fff"></path><path d="M152.64,89.12a3.19,3.19,0,0,0,.79-4.31,3.16,3.16,0,1,0-5.12,3.69A3.18,3.18,0,0,0,152.64,89.12Z" style="fill:#fff"></path><path d="M132.92,104.26a3.16,3.16,0,0,0-3.58,5.2,3.16,3.16,0,0,0,3.58-5.2Z" style="fill:#fff"></path><path d="M148.91,63a3,3,0,1,0-.73,4.22A3.12,3.12,0,0,0,148.91,63Z" style="fill:#fff"></path><path d="M155.62,62.52a3.17,3.17,0,0,0,1.16-4.18,3,3,0,1,0-5.32,3A3.18,3.18,0,0,0,155.62,62.52Z" style="fill:#fff"></path><path d="M137.07,72.49a3,3,0,1,0,.12-4.39A3,3,0,0,0,137.07,72.49Z" style="fill:#fff"></path><path d="M160.33,84.24a3.17,3.17,0,0,0,1.29-4.17,3.16,3.16,0,1,0-5.53,3A3.18,3.18,0,0,0,160.33,84.24Z" style="fill:#fff"></path><path d="M163.51,58.65a3,3,0,0,0,1.66-3.93,3,3,0,1,0-5.62,2.34A3,3,0,0,0,163.51,58.65Z" style="fill:#fff"></path><path d="M170,49.81a3,3,0,0,0-2,3.84,3.17,3.17,0,0,0,3.81,2.08,3.14,3.14,0,0,0,2-3.83A3,3,0,0,0,170,49.81Z" style="fill:#fff"></path><path d="M180.4,53.57A3.15,3.15,0,0,0,182.79,50a3,3,0,0,0-3.61-2.48,3.1,3.1,0,0,0,1.22,6.07Z" style="fill:#fff"></path><path d="M109.26,87.18a3.16,3.16,0,0,0-2,6,3.16,3.16,0,0,0,2-6Z" style="fill:#fff"></path><path d="M186.06,75.05a3.16,3.16,0,0,0,2.51-3.61,3.16,3.16,0,0,0-6.19,1.24A3.16,3.16,0,0,0,186.06,75.05Z" style="fill:#fff"></path><path d="M177.15,77.23a3.16,3.16,0,0,0,2.16-3.82,3.16,3.16,0,0,0-6.05,1.81A3.17,3.17,0,0,0,177.15,77.23Z" style="fill:#fff"></path><path d="M226.22,72.26c-.38-1-.8-2-1.27-3.07a3.2,3.2,0,0,0-4.95,2,3.16,3.16,0,0,0,6.21,1.13S226.21,72.28,226.22,72.26Z" style="fill:#fff"></path><path d="M188.46,46a3.09,3.09,0,0,0-2.66,3.51,3,3,0,0,0,6-.69A3.11,3.11,0,0,0,188.46,46Z" style="fill:#fff"></path><path d="M195.14,73.69A3.19,3.19,0,0,0,198,70.33a3.16,3.16,0,0,0-6.28.66A3.18,3.18,0,0,0,195.14,73.69Z" style="fill:#fff"></path><path d="M194.88,48.58a3.16,3.16,0,0,0,3.17,3A3.07,3.07,0,0,0,201,48.37a3,3,0,0,0-.2-1c-1.34-.63-2.71-1.22-4.1-1.77A3,3,0,0,0,194.88,48.58Z" style="fill:#fff"></path><path d="M145.86,90.49a3.07,3.07,0,0,0-4.46-.2,3.23,3.23,0,0,0-1.07,2.22,3,3,0,0,0,.87,2.23,3.09,3.09,0,0,0,2.17.92,3,3,0,0,0,2.2-.81A3.17,3.17,0,0,0,145.86,90.49Z" style="fill:#fff"></path><path d="M123.37,120.57a2.78,2.78,0,0,0-.88-.22c.84,1.18,1.74,2.38,2.71,3.58A3.18,3.18,0,0,0,123.37,120.57Z" style="fill:#fff"></path><path d="M117.9,109.48a3.11,3.11,0,0,0-3.48-4c.6,1.51,1.39,3.35,2.43,5.42A3,3,0,0,0,117.9,109.48Z" style="fill:#fff"></path><path d="M204.1,49A3.15,3.15,0,0,0,207,51.5a2.9,2.9,0,0,0,1.1-.19Q206.16,50.11,204.1,49Z" style="fill:#fff"></path><path d="M204.25,67a3.07,3.07,0,0,0-3.13,3.17,3.16,3.16,0,0,0,6.31,0A3.07,3.07,0,0,0,204.25,67Z" style="fill:#fff"></path><path d="M168.53,80.27a3.1,3.1,0,1,0-4.07-1.58A3.14,3.14,0,0,0,168.53,80.27Z" style="fill:#fff"></path><path d="M210.59,70.23A3.15,3.15,0,1,0,214,67.35,3.12,3.12,0,0,0,210.59,70.23Z" style="fill:#fff"></path></g><path d="M144.83,111s28-41.53,83.42-25.13" style="fill:none;stroke:#263238;stroke-linecap:round;stroke-linejoin:round"></path><path d="M225.84,98.93s-15.72-17.62-36-15.69" style="fill:none;stroke:#263238;stroke-linecap:round;stroke-linejoin:round"></path><path d="M120.22,116.3s-5.79-42.93,27.49-69" style="fill:none;stroke:#263238;stroke-linecap:round;stroke-linejoin:round"></path><path d="M113,101.35s-6.75-22.19,13.51-37.14" style="fill:none;stroke:#263238;stroke-linecap:round;stroke-linejoin:round"></path><path d="M133.72,132.7s2.13-22.9,32.32-36.18c29.45-13,59.8,2.41,59.8,2.41s7.24-12.05-1-29.9-34.73-29.42-59.33-29.42S136.13,55.53,127,61.31s-28.46,21.23-24.6,27.5S113,101.35,113,101.35A69.54,69.54,0,0,0,133.72,132.7Z" style="fill:none;stroke:#263238;stroke-linecap:round;stroke-linejoin:round"></path><path d="M38.5,343.78a43,43,0,0,0-4.32,17.9c0,7.41.62,20.68,1.54,25.3s6.79,5.25,10.49,5.25S57.94,386.37,70.28,374s49.38-64.8,49.38-64.8,8.33-11.11,11.42-15.74,5.55-26.54,6.48-28.09,7.1-4.62,10.49-5.86,7.72-3.09,8-5.55-4,0-7.41.92-11.11,2.47-11.11,2.47,7.1-6.17,8-6.79,11.11-4.63,11.73-7.71-7.1,1.23-10.8,2.16-13.27,7.71-13.27,6.79.62-1.55,1.23-3.09,10.19-9.26,11.73-10.49,8.64-2.47,9.88-5.87-6.18-1.85-9.57-.3-16.66,10.18-16.66,10.18,7.4-9.57,9-11.11,8.64-3.7,8-7.41S133.55,229,132,230.21s-7.72,8.34-7.72,8.34,1.24-3.71-.62-6.48-2.77,0-3.7,4.32-3.7,10.8-4.32,13.88S111,286.69,111,286.69a12.5,12.5,0,0,1-2.16,6.48c-2.16,3.08-31.48,28.39-43.2,34.87s-21,12.65-21,12.65" style="fill:#fff;stroke:#263238;stroke-linecap:round;stroke-linejoin:round"></path><path d="M124.29,238.55s-4.63,6.48-5.25,8.64" style="fill:none;stroke:#263238;stroke-linecap:round;stroke-linejoin:round"></path><path d="M208.16,271.63c14.52,0,26.65,13,29.58,30.27a47.57,47.57,0,0,0,.68-8.09c0-21.19-13.55-38.36-30.26-38.36s-30.27,17.17-30.27,38.36a48.61,48.61,0,0,0,.68,8.09C181.5,284.6,193.63,271.63,208.16,271.63Z" style="fill:#92E3A9"></path><path d="M208.16,271.63c14.52,0,26.65,13,29.58,30.27a47.57,47.57,0,0,0,.68-8.09c0-21.19-13.55-38.36-30.26-38.36s-30.27,17.17-30.27,38.36a48.61,48.61,0,0,0,.68,8.09C181.5,284.6,193.63,271.63,208.16,271.63Z" style="opacity:0.27"></path><path d="M208.16,271.63c14.52,0,26.65,13,29.58,30.27a47.57,47.57,0,0,0,.68-8.09c0-21.19-13.55-38.36-30.26-38.36s-30.27,17.17-30.27,38.36a48.61,48.61,0,0,0,.68,8.09C181.5,284.6,193.63,271.63,208.16,271.63Z" style="fill:none;stroke:#263238;stroke-linecap:round;stroke-linejoin:round"></path><path d="M230.67,268.49c.59,9.56,2.09,15.16-6.9,32-7.13,13.34-44.46,56.13-59.57,73.23L171.34,396c9.68-12.69,21.91-24.86,31.34-37.78,8.16-11.19,14.25-18.25,22-29.82,6.84-10.25,10.9-13.77,13.12-26.49C240.87,281.31,230.67,268.49,230.67,268.49Z" style="fill:#92E3A9;stroke:#263238;stroke-linecap:round;stroke-linejoin:round"></path><path d="M252,373.47c-15.22-17.23-52.28-59.74-59.39-73-9-16.8-7.49-22.4-6.89-32,0,0-10.21,12.82-7.11,33.41,2.21,12.72,6.28,16.24,13.12,26.49,7.73,11.57,14.07,17.84,22.23,29,9.37,12.83,21.26,25.71,30.91,38.32Z" style="fill:#92E3A9;stroke:#263238;stroke-linecap:round;stroke-linejoin:round"></path><path d="M254.21,419.7c-1.14-3.78-2.31-7.34-3.48-10.73-92.53,18.44-143.3,5.09-156.94.45a307,307,0,0,0-9,31.26,180.3,180.3,0,0,0-3.4,35.49H265S261.31,443.15,254.21,419.7Z" style="fill:#263238;stroke:#263238;stroke-linecap:round;stroke-linejoin:round"></path><path d="M175,420.5s2.5,23,1,36" style="fill:none;stroke:#8c8c8c;stroke-linecap:round;stroke-linejoin:round"></path><path d="M104,416l-3,7c14.5,5.5,40.5,6.5,40.5,6.5l-.5-9" style="fill:none;stroke:#8c8c8c;stroke-linecap:round;stroke-linejoin:round"></path><polyline points="147 422 147 430 158 430" style="fill:none;stroke:#8c8c8c;stroke-linecap:round;stroke-linejoin:round"></polyline><polyline points="191 430 213.5 428.5 213 419.5" style="fill:none;stroke:#8c8c8c;stroke-linecap:round;stroke-linejoin:round"></polyline><path d="M220,419.5l.5,7.5s18.5-.5,29.5-5.5" style="fill:none;stroke:#8c8c8c;stroke-linecap:round;stroke-linejoin:round"></path><path d="M226,431s1,22.5,35,34.5" style="fill:none;stroke:#8c8c8c;stroke-linecap:round;stroke-linejoin:round"></path><path d="M113.5,429.5a70.65,70.65,0,0,1-29,30" style="fill:none;stroke:#8c8c8c;stroke-linecap:round;stroke-linejoin:round"></path><path d="M184.74,426a3.6,3.6,0,1,1-3.6-3.59A3.6,3.6,0,0,1,184.74,426Z" style="fill:#fff;stroke:#8c8c8c;stroke-linecap:round;stroke-linejoin:round"></path><line x1="471" y1="475.83" x2="479" y2="475.83" style="fill:none;stroke:#263238;stroke-linecap:round;stroke-linejoin:round"></line><line x1="23" y1="475.83" x2="456" y2="475.83" style="fill:none;stroke:#263238;stroke-linecap:round;stroke-linejoin:round"></line></g></svg>